<?xml version="1.0" encoding="UTF-8"?>
<svg version="1.1" xmlns="http://www.w3.org/2000/svg" width="500" height="500">
<path d="M0 0 C0.78761719 -0.02900391 1.57523438 -0.05800781 2.38671875 -0.08789062 C14.05727655 -0.21004622 24.06073053 5.04249953 34.125 10.4375 C35.21756104 11.01516113 36.31012207 11.59282227 37.43579102 12.18798828 C40.63077494 13.88363049 43.81730606 15.59391783 47 17.3125 C47.81807129 17.75400391 48.63614258 18.19550781 49.47900391 18.65039062 C60.22905429 24.48364172 70.79294313 30.64435023 81.37963867 36.76708984 C98.38044814 46.62633684 98.38044814 46.62633684 115.8125 55.6875 C124.47950797 59.95126944 132.77944041 64.84380317 141.14111328 69.67138672 C145.05218471 71.91649535 148.98292285 74.12591486 152.91430664 76.33520508 C192.97010311 98.85853947 192.97010311 98.85853947 198.4921875 117.2421875 C201.88131118 131.05938403 200.219206 144.09579948 193.3125 156.5625 C188.0588235 164.666296 181.4501033 170.30748967 173.25 175.26171875 C169.22597331 177.80091828 165.40396366 180.56989796 161.5625 183.375 C154.2630676 188.69459901 146.89538347 193.90424951 139.48291016 199.06494141 C133.75325661 203.06265922 128.08430294 207.13630882 122.4375 211.25 C117.86791311 214.57546991 113.30718717 217.83453169 108.5 220.8125 C99.56504382 226.35080872 91.20007154 232.77958535 82.71923828 238.97998047 C73.69580971 245.57153522 64.59709556 251.98418858 55.26879883 258.13818359 C50.29636338 261.42462952 45.44594677 264.83825499 40.64453125 268.37109375 C25.70970306 279.33506659 12.14183495 287.70761017 -7.1328125 284.84765625 C-18.89877582 282.49724514 -27.52917793 276.96957335 -36.8828125 269.65625 C-40.06121712 267.26647209 -43.31775369 265.06424197 -46.63525391 262.87451172 C-57.08286655 255.97343535 -67.37707006 248.85202795 -77.44262695 241.40527344 C-87.81239065 233.73915921 -98.3637369 226.35562744 -109.125 219.25 C-115.26879418 215.19149148 -121.26603708 210.99315434 -127.17407227 206.59960938 C-133.24796596 202.0934054 -139.44497075 197.77046009 -145.64990234 193.44726562 C-151.19223805 189.58413519 -156.69841229 185.67572585 -162.18017578 181.72729492 C-165.87494643 179.07943109 -169.63549045 176.55330972 -173.4375 174.0625 C-185.55105096 165.99750984 -193.90837552 156.47150636 -197.58203125 142.0234375 C-199.78786808 127.71642103 -197.53769468 114.82452294 -189.6875 102.55859375 C-184.48177151 95.62967273 -177.40679118 91.54355617 -170 87.3125 C-168.2353808 86.25575678 -166.47078918 85.19896737 -164.70654297 84.14160156 C-154.1935767 77.87195832 -143.45770159 72.00536463 -132.72943115 66.11575317 C-132.11746887 65.77978119 -131.50550659 65.4438092 -130.875 65.09765625 C-130.27190002 64.76659882 -129.66880005 64.43554138 -129.04742432 64.0944519 C-123.21569102 60.8892206 -117.42574155 57.61357899 -111.65234375 54.3046875 C-108.57825838 52.58375584 -105.43064858 51.03503725 -102.26953125 49.48046875 C-96.26249966 46.49724225 -90.50851928 43.18305725 -84.75 39.75 C-74.50141417 33.70435003 -64.11494896 27.96896882 -53.62890625 22.34765625 C-49.31823059 20.03494918 -45.04530466 17.66424187 -40.78710938 15.2565918 C-34.17011815 11.51892127 -27.498218 7.99611615 -20.625 4.75 C-19.56261108 4.24762817 -19.56261108 4.24762817 -18.47875977 3.73510742 C-12.04387286 0.75737351 -6.99328385 0.08259784 0 0 Z M-15 39.3125 C-16.39175485 40.0823427 -17.78369189 40.85185609 -19.17578125 41.62109375 C-21.46121793 42.88737972 -23.74461413 44.15699131 -26.02416992 45.43383789 C-31.04011542 48.24212143 -36.09297418 50.96242387 -41.1875 53.625 C-54.36165512 60.53996901 -67.24498507 67.99074268 -80.1328125 75.421875 C-101.73921108 87.86808287 -101.73921108 87.86808287 -111.61108398 92.65185547 C-118.23030412 95.86642078 -124.58978727 99.50583184 -130.97363281 103.15820312 C-133.74272695 104.7355859 -136.52508662 106.28881446 -139.30737305 107.84277344 C-141.95539934 109.32484271 -144.59622719 110.81941481 -147.23583984 112.31640625 C-148.83584198 113.21981183 -150.44293047 114.11063824 -152.05078125 115 C-157.73117312 118.23151182 -162.00372151 121.31994303 -165 127.3125 C-165.52219046 133.57878548 -165.06394614 136.22938241 -161 141.3125 C-158.40418687 143.55296642 -155.63389656 145.49268 -152.8125 147.4375 C-152.01803467 147.99808105 -151.22356934 148.55866211 -150.4050293 149.13623047 C-147.94312145 150.87103879 -145.4719408 152.5920292 -143 154.3125 C-140.80598757 155.85475053 -138.6146255 157.40069678 -136.42382812 158.94750977 C-135.01484337 159.94184764 -133.60468278 160.93452142 -132.19335938 161.92553711 C-127.51461316 165.21643663 -122.90403817 168.58888719 -118.3125 172 C-113.07051889 175.88567877 -107.71311537 179.49221189 -102.19628906 182.97387695 C-94.36658359 187.93849184 -86.90249577 193.4201599 -79.453125 198.93359375 C-69.47208402 206.31716225 -59.27517461 213.34531086 -49 220.3125 C-39.9049981 226.47946075 -30.82526435 232.63781848 -22 239.1875 C-10.60328145 248.68692884 -10.60328145 248.68692884 3 252.3125 C9.10800682 249.97147551 14.29665521 246.12923319 19.5 242.25 C21.09006623 241.0831628 22.6812334 239.91782454 24.2734375 238.75390625 C25.06588867 238.17398926 25.85833984 237.59407227 26.67480469 236.99658203 C30.11883791 234.5021531 33.61420112 232.0866911 37.125 229.6875 C37.77952148 229.23987305 38.43404297 228.79224609 39.10839844 228.33105469 C40.42175519 227.43408067 41.7355542 226.53775384 43.04980469 225.64208984 C66.50065638 209.72391446 66.50065638 209.72391446 89.375 193 C94.65413179 188.98294233 100.0281247 185.26795229 105.64428711 181.74047852 C116.48444014 174.90058509 126.82148433 167.25591007 137.10058594 159.60693359 C140.75797401 156.90116343 144.46938447 154.30067902 148.2421875 151.7578125 C149.14412842 151.14470215 150.04606934 150.5315918 150.9753418 149.89990234 C152.74198845 148.7030545 154.51658601 147.51783365 156.30004883 146.34619141 C161.43023354 142.85687208 164.56214197 140.07897187 167 134.3125 C167.45270474 131.92530145 167.45270474 131.92530145 167.0625 129.75 C166.99160156 129.04746094 166.92070312 128.34492188 166.84765625 127.62109375 C164.34119704 120.79474632 158.99441997 117.78786118 152.875 114.625 C151.25551859 113.75836128 149.63706092 112.88980733 148.01953125 112.01953125 C147.1888916 111.57561035 146.35825195 111.13168945 145.50244141 110.67431641 C141.46851367 108.47907261 137.52070364 106.14058926 133.5625 103.8125 C126.53364875 99.70712142 119.41016261 95.83689797 112.19116211 92.07763672 C94.8992745 83.06579735 78.00510464 73.3456699 61.09375 63.64550781 C51.11372506 57.92997379 41.158865 52.24748801 30.81469727 47.21362305 C23.25623521 43.51467544 15.94899277 39.35685281 8.62548828 35.21704102 C-0.10633931 30.3580111 -7.11903831 34.89907719 -15 39.3125 Z " fill="#151010" transform="translate(249,30.6875)"/>
<path d="M0 0 C0.99 0.763125 1.98 1.52625 3 2.3125 C4.37079412 3.24575916 5.74913274 4.16798558 7.1328125 5.08203125 C18.37246362 12.53845301 29.49834001 20.12332083 40.3125 28.1875 C48.11704849 34.00607327 56.09274156 39.53110455 64.1550293 44.9855957 C69.7393329 48.76488185 75.272115 52.59817739 80.7421875 56.54052734 C85.73383818 60.13528287 90.76985927 63.6647028 95.8125 67.1875 C102.26077605 71.69321453 108.70081987 76.20998665 115.125 80.75 C125.8603943 88.3407512 125.8603943 88.3407512 136.66796875 95.828125 C137.3321582 96.28324463 137.99634766 96.73836426 138.68066406 97.20727539 C140.0560452 98.149564 141.43169471 99.09146101 142.80761719 100.03295898 C148.12302288 103.68116869 153.37310903 107.41429327 158.57128906 111.2277832 C162.83134989 114.31728105 166.29649795 115.89316372 171.671875 115.7578125 C176.80250869 114.77644968 180.824891 111.286415 185 108.3125 C186.61099828 107.18739628 188.223066 106.063823 189.8359375 104.94140625 C193.27633304 102.54384473 196.70737468 100.13371322 200.1328125 97.71484375 C203.99658398 94.99623458 207.90887182 92.36217645 211.84716797 89.75317383 C215.2750129 87.45926218 218.63761916 85.07591078 222 82.6875 C223.4908371 81.63144221 224.98172392 80.5754546 226.47265625 79.51953125 C227.60018311 78.72023193 227.60018311 78.72023193 228.75048828 77.90478516 C230.9130063 76.37407726 233.07878381 74.84813215 235.24609375 73.32421875 C241.87602751 68.66011052 248.48356352 63.97108512 255.03759766 59.20068359 C261.28553327 54.65471331 267.53727497 50.24798911 274.10546875 46.171875 C283.12330694 40.37903967 291.83476345 34.07132933 300.25 27.4375 C307.5110137 21.76969737 315.19304651 16.76358264 322.88671875 11.70703125 C327.21683773 8.8570679 331.46446143 5.90426925 335.68676758 2.8972168 C341.42912852 -1.03667923 346.2592246 -3.50269176 353.33984375 -2.28515625 C359.00163434 -0.69307204 361.70715298 1.47613094 365 6.3125 C366.24589338 8.80428677 366.27416487 10.652899 366.375 13.4375 C366.42398437 14.34757812 366.47296875 15.25765625 366.5234375 16.1953125 C365.55244722 21.97777701 362.41725053 26.53582822 357.71484375 30.0078125 C356.4659051 30.83331419 355.2061078 31.64255657 353.9375 32.4375 C352.50815034 33.37613747 351.07981274 34.3163174 349.65234375 35.2578125 C348.89808105 35.74926758 348.14381836 36.24072266 347.36669922 36.74707031 C343.18324429 39.51417501 339.09826488 42.4214119 335 45.3125 C328.89808341 49.59681204 322.77776354 53.85156341 316.625 58.0625 C306.70188073 64.86270091 296.94060087 71.87308884 287.25 79 C271.89952309 90.28162848 271.89952309 90.28162848 264.9375 94.1171875 C261.26948804 96.38011424 257.9152177 99.09167433 254.48828125 101.69921875 C248.51244896 106.21341107 242.34084659 110.4603236 236.20996094 114.75976562 C234.03485804 116.28800849 231.86426365 117.82241645 229.6953125 119.359375 C184.8434876 151.14053651 184.8434876 151.14053651 160 149.3125 C150.64693795 147.67179526 143.59535713 142.75217002 136 137.3125 C134.16278603 136.04649071 132.31870971 134.79086475 130.47460938 133.53491211 C126.97135522 131.14440028 123.48583799 128.72830861 120 126.3125 C119.18337891 125.74660156 118.36675781 125.18070312 117.52539062 124.59765625 C100.96269626 113.10312121 100.96269626 113.10312121 93.75 107.625 C84.82272517 100.84479127 75.50041613 94.61355342 66.14697266 88.44018555 C60.07844777 84.43277227 54.20864382 80.26983123 48.421875 75.859375 C40.78683344 70.11206709 32.84853681 64.76185532 25 59.3125 C23.83068695 58.49875857 22.66141045 57.68496463 21.4921875 56.87109375 C16.86011074 53.65470285 12.21769488 50.45666301 7.546875 47.296875 C-0.38832612 41.92105225 -8.28019271 36.49482672 -16 30.8125 C-16.66427002 30.33256592 -17.32854004 29.85263184 -18.01293945 29.3581543 C-22.91548569 25.70004618 -25.47115904 22.61673562 -26.875 16.5 C-27.27993951 11.9336608 -26.32909719 8.25339995 -24 4.3125 C-17.66840439 -3.04332431 -8.37665796 -4.7118701 0 0 Z " fill="#151010" transform="translate(80,241.6875)"/>
<path d="M0 0 C1.7563612 1.28308872 3.48391795 2.59739145 5.20605469 3.92602539 C10.42725507 7.86339986 15.74148967 11.47072677 21.33105469 14.86352539 C26.81585079 18.20922478 31.94807882 21.77141462 36.99169922 25.76782227 C45.11278991 32.16191497 53.70816345 37.9241661 62.20605469 43.80102539 C63.36232406 44.60177867 64.51857666 45.40255616 65.67480469 46.20336914 C67.70423846 47.60775823 69.73419099 49.01139798 71.76464844 50.41430664 C77.83355311 54.61613599 83.87285685 58.86056906 89.91699219 63.09790039 C93.47965063 65.59480631 97.04775044 68.08365567 100.62011719 70.56665039 C101.50368896 71.18193604 102.38726074 71.79722168 103.29760742 72.43115234 C104.97024758 73.59569246 106.64414395 74.75843139 108.31958008 75.91894531 C112.11677567 78.56590856 115.82925199 81.26709573 119.45214844 84.14868164 C124.70591642 88.27676477 130.24626947 91.95457513 135.81640625 95.63500977 C137.57368457 96.79615548 139.32764548 97.96217223 141.08105469 99.12915039 C144.44740484 101.36642701 147.82558332 103.58514001 151.20605469 105.80102539 C152.24922852 106.49083496 153.29240234 107.18064453 154.3671875 107.89135742 C155.3375293 108.52412598 156.30787109 109.15689453 157.30761719 109.80883789 C158.1592041 110.36716309 159.01079102 110.92548828 159.88818359 111.50073242 C162.72290299 113.09096999 164.90681264 113.81485569 168.14355469 113.46899414 C173.0323304 111.88569746 177.05477579 108.74660196 181.20605469 105.80102539 C183.17677081 104.43924416 185.15210494 103.08431661 187.12744141 101.72924805 C188.51650216 100.77481941 189.90354294 99.81744444 191.28857422 98.85717773 C195.16277671 96.17503755 199.07324714 93.59427879 203.08105469 91.11352539 C206.48324793 88.98088213 209.61162347 86.7334505 212.70605469 84.17602539 C218.11946792 79.73051674 223.87740761 75.86378562 229.67480469 71.94458008 C235.43173906 68.04290776 241.08978656 64.02717957 246.70605469 59.92602539 C252.17493091 55.93702462 257.69102085 52.15924589 263.44824219 48.59399414 C268.24502391 45.47540659 272.79865038 42.02337986 277.39355469 38.61743164 C281.46471914 35.60004081 285.58439058 32.65441144 289.71606445 29.72070312 C293.07171756 27.33468015 296.40990057 24.92700783 299.73339844 22.49633789 C313.44887292 12.48060057 313.44887292 12.48060057 320.63183594 8.40649414 C324.95635834 5.70940961 328.98779117 2.59300257 333.03100586 -0.50610352 C333.94910034 -1.19905518 333.94910034 -1.19905518 334.88574219 -1.90600586 C335.42956543 -2.32342041 335.97338867 -2.74083496 336.53369141 -3.17089844 C340.46195254 -5.58577547 344.70706396 -5.5738905 349.20605469 -5.19897461 C355.26510913 -3.1151129 359.29188301 -0.02731797 362.20605469 5.80102539 C362.71905242 10.94782236 362.87233502 15.38851108 360.64355469 20.11352539 C355.03061234 26.30215414 348.31081943 30.96163258 341.45605469 35.67602539 C339.67032148 36.91347446 337.88516025 38.15174937 336.10058594 39.39086914 C334.82755615 40.27427979 334.82755615 40.27427979 333.52880859 41.17553711 C330.70074731 43.15464495 327.91884726 45.18617445 325.14355469 47.23852539 C321.8616907 49.64793094 318.53429249 51.89468167 315.08105469 54.05102539 C305.06938974 60.32976955 295.40717569 67.2168101 286.14355469 74.55102539 C279.05741886 80.08734896 271.56151865 84.98685833 264.0456543 89.91723633 C258.16537533 93.78300658 252.41351087 97.77207359 246.74267578 101.93920898 C243.22161008 104.5235831 239.65431869 107.03959429 236.08105469 109.55102539 C234.61487747 110.58353291 233.1487326 111.61608636 231.68261719 112.64868164 C230.94430664 113.16833496 230.20599609 113.68798828 229.4453125 114.22338867 C226.49859812 116.29945369 223.55612938 118.381494 220.61352539 120.46337891 C217.79932139 122.45277942 214.98179004 124.43743066 212.16357422 126.42114258 C210.90546047 127.3080045 209.64852267 128.19653828 208.39306641 129.0871582 C191.60053401 140.99952454 178.17086974 148.84731489 157.20605469 146.80102539 C142.91439859 144.04758706 131.25826661 134.53965988 119.79589844 126.13696289 C115.59356155 123.06354616 111.32430251 120.10211271 107.01855469 117.17602539 C101.08651839 113.13817858 95.26523317 108.97364728 89.51586914 104.67944336 C85.60139353 101.76912312 81.59775696 99.02907977 77.52905273 96.33886719 C65.85000083 88.60724891 54.40492925 80.57251324 43.14990234 72.23852539 C33.84885796 65.36028508 24.54214932 58.55899046 14.76855469 52.36352539 C6.82348992 47.32444484 -0.71345962 41.81181245 -8.24316406 36.17602539 C-11.12880575 34.01926593 -14.03788823 31.91256676 -17.00097656 29.86352539 C-17.64526611 29.41630127 -18.28955566 28.96907715 -18.95336914 28.50830078 C-20.13646801 27.69210537 -21.32474199 26.88333401 -22.51928711 26.08398438 C-27.34957579 22.73822373 -29.36193961 19.68333595 -30.66894531 13.98852539 C-31.06569901 9.40860766 -30.18484651 5.73182905 -27.79394531 1.80102539 C-19.40632952 -7.51630203 -9.93013634 -6.63675824 0 0 Z " fill="#140F0F" transform="translate(83.7939453125,322.198974609375)"/>
<path d="M0 0 C0.66 0.33 1.32 0.66 2 1 C0.87763152 1.79300747 -0.24477215 2.58596512 -1.3671875 3.37890625 C-2.08302002 3.88518555 -2.79885254 4.39146484 -3.53637695 4.91308594 C-5.10259826 6.01773059 -6.67147855 7.11861431 -8.24291992 8.21582031 C-11.54387574 10.52529153 -14.7910299 12.83221176 -17.93359375 15.35546875 C-23.16658374 19.52295668 -27.23376157 21.12065612 -34 20.671875 C-39.54797221 19.42936039 -43.55100767 16.42091437 -48 13 C-49.19235532 12.10239545 -50.38508092 11.20528263 -51.578125 10.30859375 C-54.74756827 7.90800321 -57.8803926 5.46493621 -61 3 C-57.09431845 3 -55.69453231 4.34734404 -52.5 6.5625 C-50.89898437 7.64724609 -50.89898437 7.64724609 -49.265625 8.75390625 C-47.18353198 10.18596784 -45.10964166 11.63008163 -43.046875 13.08984375 C-36.62320368 17.67680906 -36.62320368 17.67680906 -29.0625 18.66796875 C-24.17292073 17.08441183 -20.15364562 13.94321201 -16 11 C-14.58109613 10.0262094 -13.1604099 9.05501254 -11.73828125 8.0859375 C-7.81328715 5.40803679 -3.90381628 2.70867051 0 0 Z " fill="#D7D6D6" transform="translate(281,417)"/>
<path d="M0 0 C0.66 0.33 1.32 0.66 2 1 C-0.23465568 4.35198352 -2.1710832 5.12240951 -5.72216797 6.80859375 C-9.79735637 8.94009637 -13.38789911 11.75106193 -17.0625 14.5 C-31.96524399 25.59216895 -31.96524399 25.59216895 -38.3125 25.375 C-39.15425781 25.36210937 -39.99601563 25.34921875 -40.86328125 25.3359375 C-43 25 -43 25 -45 23 C-44.00033203 23.12181641 -44.00033203 23.12181641 -42.98046875 23.24609375 C-35.20971212 23.77863511 -31.00497733 21.8969372 -24.83642578 17.34130859 C-22.57092816 15.68660985 -20.26933805 14.08821137 -17.96484375 12.48828125 C-13.63076999 9.47756801 -9.31173158 6.4464967 -5.00195312 3.40112305 C-3.35008673 2.24501801 -1.67761674 1.11841116 0 0 Z " fill="#DEDDDC" transform="translate(288,334)"/>
<path d="M0 0 C0.6875 1.6875 0.6875 1.6875 1 4 C-0.83894265 7.73663747 -2.46518143 9.63057486 -6.125 11.5625 C-11.3663049 14.51853357 -16.22900629 17.88855158 -21.125 21.375 C-21.89602051 21.92357666 -22.66704102 22.47215332 -23.46142578 23.03735352 C-25.30963329 24.35545339 -27.15589208 25.67617331 -29 27 C-29.66 26.67 -30.32 26.34 -31 26 C-28.77257514 24.35176722 -26.54319506 22.70629822 -24.3125 21.0625 C-23.63928711 20.56468018 -22.96607422 20.06686035 -22.27246094 19.55395508 C-18.96473842 17.12128116 -15.6449228 14.73426719 -12.21484375 12.4765625 C-11.62985107 12.08847412 -11.0448584 11.70038574 -10.44213867 11.30053711 C-8.83826344 10.24555699 -7.22408782 9.20628533 -5.609375 8.16796875 C-2.66107335 5.71840675 -1.46179482 3.50930879 0 0 Z " fill="#DAD9D8" transform="translate(415,165)"/>
<path d="M0 0 C2.70728056 1.29601873 5.17733028 2.71842691 7.64453125 4.42578125 C8.32193359 4.89306641 8.99933594 5.36035156 9.69726562 5.84179688 C10.39529297 6.32712891 11.09332031 6.81246094 11.8125 7.3125 C12.84213867 8.0230957 12.84213867 8.0230957 13.89257812 8.74804688 C19.45308311 12.5935806 19.45308311 12.5935806 21.93115234 14.43505859 C25.26273504 16.99636784 25.26273504 16.99636784 29.12426758 18.5090332 C31 19 31 19 32.25 21.0625 C32.4975 21.701875 32.745 22.34125 33 23 C28.54458588 21.45286379 24.81389876 19.067664 20.9375 16.4375 C20.28571777 15.99857422 19.63393555 15.55964844 18.96240234 15.10742188 C1.69167046 3.38334092 1.69167046 3.38334092 0 0 Z " fill="#D6D5D6" transform="translate(124,313)"/>
<path d="M0 0 C8.16236137 2.94793088 25.90292454 12.80584908 30 21 C21.51752373 17.01761678 13.88187642 10.96947055 6.25 5.5625 C5.62947754 5.12550781 5.00895508 4.68851562 4.36962891 4.23828125 C2.89414158 3.18489747 1.44416045 2.09593833 0 1 C0 0.67 0 0.34 0 0 Z " fill="#D8D7D6" transform="translate(97,333)"/>
<path d="M0 0 C0.66 0.33 1.32 0.66 2 1 C-2.76784693 7.31038564 -7.41872933 9.65341622 -15 12 C-10.58990583 7.14889642 -5.41995647 3.651893 0 0 Z " fill="#777575" transform="translate(358,363)"/>
<path d="M0 0 C0.66 0.33 1.32 0.66 2 1 C0.9171875 1.804375 0.9171875 1.804375 -0.1875 2.625 C-3.247842 5.2092888 -5.51220011 7.87248014 -8 11 C-8.99 10.67 -9.98 10.34 -11 10 C-11.33 10.99 -11.66 11.98 -12 13 C-13.65 13.33 -15.3 13.66 -17 14 C-13.46843481 10.31118515 -9.81465908 7.22617756 -5.6875 4.1875 C-5.13771484 3.78080078 -4.58792969 3.37410156 -4.02148438 2.95507812 C-2.68374453 1.96631389 -1.34226377 0.98261415 0 0 Z " fill="#848282" transform="translate(382,192)"/>
<path d="M0 0 C4.67791382 1.57120769 8.29924729 4.13119616 12.25 7 C12.88679687 7.45117188 13.52359375 7.90234375 14.1796875 8.3671875 C18.87017234 11.74034468 18.87017234 11.74034468 20 14 C14.78755909 12.19314662 10.96003278 9.10526786 6.62109375 5.77734375 C4.27543653 4.18677142 2.75972322 3.42207532 0 3 C0 2.01 0 1.02 0 0 Z " fill="#C3C2C2" transform="translate(147,290)"/>
<path d="M0 0 C-1.44575267 3.3734229 -3.2049086 5.61595146 -6 8 C-8.25 8.75 -8.25 8.75 -10 9 C-8.5124715 4.98367305 -4.56813239 0 0 0 Z " fill="#8A8988" transform="translate(71,124)"/>
<path d="M0 0 C0 0.66 0 1.32 0 2 C-3.17457064 5.09943287 -5.99728468 6.90884406 -10.4375 7.3125 C-11.283125 7.209375 -12.12875 7.10625 -13 7 C-4.79310345 0 -4.79310345 0 0 0 Z " fill="#888787" transform="translate(109,102)"/>
<path d="M0 0 C0.66 0.33 1.32 0.66 2 1 C1.01 2.485 1.01 2.485 0 4 C-0.99 4 -1.98 4 -3 4 C-3.20625 4.639375 -3.4125 5.27875 -3.625 5.9375 C-5 8 -5 8 -8.125 8.75 C-9.548125 8.87375 -9.548125 8.87375 -11 9 C-7.67149253 5.40521193 -4.01028669 2.77635232 0 0 Z " fill="#807E7E" transform="translate(368,278)"/>
<path d="M0 0 C4.00726246 0.61650192 6.67864556 2.78576371 10 5 C11.11375 5.2475 11.11375 5.2475 12.25 5.5 C14 6 14 6 15.25 8.0625 C15.4975 8.701875 15.745 9.34125 16 10 C12.06342758 8.56786488 8.71068644 6.69667846 5.1875 4.4375 C4.21167969 3.81746094 3.23585937 3.19742187 2.23046875 2.55859375 C1.49441406 2.04425781 0.75835937 1.52992188 0 1 C0 0.67 0 0.34 0 0 Z " fill="#BAB9B9" transform="translate(141,326)"/>
<path d="M0 0 C2.64 0 5.28 0 8 0 C8.12375 0.5775 8.2475 1.155 8.375 1.75 C9.00725613 4.02612206 9.91863468 5.90760206 11 8 C9.16399255 6.85845641 7.33125195 5.71165684 5.5 4.5625 C4.4790625 3.92441406 3.458125 3.28632813 2.40625 2.62890625 C1.6121875 2.09136719 0.818125 1.55382812 0 1 C0 0.67 0 0.34 0 0 Z " fill="#989796" transform="translate(403,146)"/>
<path d="M0 0 C1.99609375 0.26953125 1.99609375 0.26953125 4.4375 0.8125 C5.64212891 1.06966797 5.64212891 1.06966797 6.87109375 1.33203125 C9 2 9 2 11 4 C10.01 4.33 9.02 4.66 8 5 C8 4.34 8 3.68 8 3 C7.01 3 6.02 3 5 3 C4.67 3.66 4.34 4.32 4 5 C3.67 4.01 3.34 3.02 3 2 C0.98491642 1.26676204 0.98491642 1.26676204 -1 1 C-0.67 0.67 -0.34 0.34 0 0 Z " fill="#63615F" transform="translate(260,32)"/>
<path d="M0 0 C0.66 0.33 1.32 0.66 2 1 C-0.64 2.98 -3.28 4.96 -6 7 C-6.66 6.67 -7.32 6.34 -8 6 C-7.3125 4.0625 -7.3125 4.0625 -6 2 C-3.4375 1.3125 -3.4375 1.3125 -1 1 C-0.67 0.67 -0.34 0.34 0 0 Z " fill="#979595" transform="translate(390,226)"/>
<path d="M0 0 C0.99 0.33 1.98 0.66 3 1 C3.33 2.98 3.66 4.96 4 7 C1.11562221 5.70700306 -0.87219421 4.34058637 -3 2 C-2.01 1.67 -1.02 1.34 0 1 C0 0.67 0 0.34 0 0 Z " fill="#666463" transform="translate(148,250)"/>
<path d="M0 0 C0.66 0.33 1.32 0.66 2 1 C-0.33343353 4.50015029 -2.16917814 5.40382422 -6 7 C-6.66 6.67 -7.32 6.34 -8 6 C-5.36 4.02 -2.72 2.04 0 0 Z " fill="#B9B6B7" transform="translate(305,400)"/>
<path d="M0 0 C4.43458973 1.3937282 6.87378374 3.60582235 10 7 C6.66666667 5.66666667 3.33333333 4.33333333 0 3 C0 2.01 0 1.02 0 0 Z " fill="#B9B8B8" transform="translate(190,398)"/>
<path d="M0 0 C0.66 0.33 1.32 0.66 2 1 C-0.50683077 4.76024616 -2.86493934 5.39192086 -7 7 C-5.66667905 3.00003714 -3.5042173 2.16217663 0 0 Z " fill="#B5B4B3" transform="translate(288,334)"/>
<path d="M0 0 C1 4 1 4 -0.25 6.75 C-0.8275 7.4925 -1.405 8.235 -2 9 C-2.99 9 -3.98 9 -5 9 C-3.35 6.03 -1.7 3.06 0 0 Z " fill="#7B7879" transform="translate(415,165)"/>
<path d="M0 0 C2.31 0 4.62 0 7 0 C7 1.65 7 3.3 7 5 C4.11562221 3.70700306 2.12780579 2.34058637 0 0 Z " fill="#918D8C" transform="translate(189,437)"/>
<path d="M0 0 C0.66 0.33 1.32 0.66 2 1 C-0.57404971 4.86107457 -2.61020259 4.94319692 -7 6 C-4.74259377 3.66475218 -2.7194239 1.81294927 0 0 Z " fill="#B5B4B4" transform="translate(264,275)"/>
</svg>
