<?xml version="1.0" encoding="UTF-8"?>
<svg version="1.1" xmlns="http://www.w3.org/2000/svg" width="512" height="512">
<path d="M0 0 C168.96 0 337.92 0 512 0 C512 168.96 512 337.92 512 512 C343.04 512 174.08 512 0 512 C0 343.04 0 174.08 0 0 Z " fill="#FEFEFE" transform="translate(0,0)"/>
<path d="M0 0 C2.50303362 1.18598965 4.90124167 2.48637291 7.31103516 3.85180664 C8.21490967 4.34438965 9.11878418 4.83697266 10.05004883 5.34448242 C12.94153144 6.92914897 15.81521091 8.54254955 18.68603516 10.16430664 C19.61851074 10.68814941 20.55098633 11.21199219 21.51171875 11.75170898 C25.30848824 13.88652622 29.10127678 16.02800745 32.88574219 18.18457031 C39.7699695 22.10547638 46.7089363 25.91145175 53.68603516 29.66430664 C62.53724553 34.42742462 71.30580606 39.3179656 80.04150391 44.28930664 C86.87703362 48.16867958 93.76522122 51.93947947 100.68603516 55.66430664 C110.49509507 60.94702391 120.2179307 66.3660278 129.89697266 71.88305664 C133.94606753 74.18888768 138.01558581 76.45307955 142.10009766 78.69555664 C143.67488892 79.56664062 143.67488892 79.56664062 145.28149414 80.45532227 C147.29202918 81.56655363 149.30696487 82.6698726 151.3269043 83.76391602 C156.7989764 86.80379389 160.80749308 89.40722249 163.68603516 95.16430664 C164.18624782 100.1828337 164.32571643 104.68140914 162.31103516 109.35180664 C155.30857943 116.85443778 146.60206479 122.37604889 138.15869141 128.11352539 C133.32519201 131.40013263 128.53463204 134.74667098 123.74853516 138.10180664 C122.9011377 138.69558105 122.05374023 139.28935547 121.18066406 139.90112305 C115.15122623 144.12945514 109.13321008 148.37381301 103.11987305 152.625 C96.80327955 157.08815548 90.46587251 161.52130587 84.12744141 165.95336914 C78.80424051 169.67714912 73.49062397 173.41406823 68.18603516 177.16430664 C57.85800496 184.464841 47.48983822 191.7078923 37.12451172 198.95532227 C35.42402486 200.14442848 33.72366627 201.33371814 32.0234375 202.52319336 C30.35231887 203.69210384 28.68077547 204.86040729 27.00878906 206.02807617 C22.932551 208.87780693 18.86866046 211.74273856 14.82666016 214.64086914 C14.05475342 215.19242676 13.28284668 215.74398437 12.48754883 216.31225586 C11.03923973 217.34854463 9.59387567 218.38896717 8.15209961 219.43432617 C2.66572312 223.3540442 -2.36451393 226.07137656 -9.26708984 225.91821289 C-15.74467438 224.31542595 -20.93126108 219.70162593 -26.1875 215.75073242 C-29.59371803 213.20956081 -33.08310931 210.78909932 -36.56396484 208.35180664 C-37.98633716 207.34599914 -39.40820235 206.33947414 -40.82958984 205.33227539 C-45.64549899 201.92545767 -50.47911398 198.54416552 -55.31396484 195.16430664 C-61.49085397 190.84531916 -67.65959443 186.51532368 -73.81396484 182.16430664 C-83.29123529 175.4651455 -92.80246675 168.8147403 -102.31396484 162.16430664 C-112.51492289 155.031803 -122.71143131 147.89368106 -132.87451172 140.70727539 C-137.54384933 137.40766849 -142.2242325 134.12425615 -146.91162109 130.8503418 C-148.62550853 129.65184849 -150.33777597 128.45103488 -152.04833984 127.24780273 C-155.85710891 124.56929632 -159.67305019 121.91187192 -163.55224609 119.33618164 C-175.13030472 111.56448818 -175.13030472 111.56448818 -177.31396484 104.16430664 C-177.94767106 98.91359802 -177.20193781 95.59253185 -174.31396484 91.16430664 C-168.73755936 85.7683981 -161.90529777 82.44882408 -155.12646484 78.78930664 C-153.82657857 78.08106896 -152.52710611 77.37207129 -151.22802734 76.66235352 C-148.55817901 75.20405885 -145.8869351 73.74836948 -143.21484375 72.29418945 C-137.39386121 69.12145541 -131.60480965 65.89165956 -125.81396484 62.66430664 C-116.53184446 57.50108047 -107.23994579 52.35594846 -97.93896484 47.22680664 C-97.33795959 46.89536652 -96.73695435 46.56392639 -96.11773682 46.22244263 C-91.2391238 43.53222202 -86.35992988 40.84305565 -81.48071289 38.15393066 C-62.47406532 27.67858112 -62.47406532 27.67858112 -43.48974609 17.1628418 C-41.19540676 15.88945777 -38.89986559 14.61823636 -36.60302734 13.34936523 C-31.82489194 10.70412211 -27.06761933 8.04361102 -22.38818359 5.22680664 C-21.66477783 4.79746826 -20.94137207 4.36812988 -20.19604492 3.92578125 C-18.92654181 3.1674149 -17.66583582 2.39394569 -16.41821289 1.60009766 C-11.04907583 -1.5881944 -5.84966148 -2.11261777 0 0 Z " fill="#FEFEFE" transform="translate(262.31396484375,64.835693359375)"/>
<path d="M0 0 C0.83015625 0.29519531 1.6603125 0.59039062 2.515625 0.89453125 C11.21424132 4.25752089 19.17975599 8.86085115 27.26660156 13.45458984 C32.4722522 16.39776317 37.70762568 19.28766769 42.9375 22.1875 C45.27225967 23.48415207 47.60691386 24.78099199 49.94140625 26.078125 C50.81973366 26.56606285 50.81973366 26.56606285 51.71580505 27.06385803 C55.7161156 29.28622983 59.7156213 31.51004556 63.71484375 33.734375 C75.25828211 40.15351246 86.80928496 46.55860362 98.375 52.9375 C99.27523895 53.43402573 99.27523895 53.43402573 100.19366455 53.94058228 C105.69431922 56.97417664 111.1956324 60.00657441 116.69824219 63.03662109 C117.30897079 63.37293549 117.9196994 63.70924988 118.54893494 64.05575562 C119.78097783 64.73420305 121.01304363 65.41260887 122.24513245 66.0909729 C125.28643388 67.76596994 128.32648876 69.44316294 131.36401367 71.125 C132.55647292 71.78516518 133.74893709 72.44532148 134.94140625 73.10546875 C135.52663559 73.42953705 136.11186493 73.75360535 136.71482849 74.0874939 C140.80614938 76.34953536 144.91394152 78.57914105 149.02734375 80.80078125 C151.24749262 82.01284357 153.46754894 83.22507542 155.6875 84.4375 C156.68426758 84.96811035 157.68103516 85.4987207 158.70800781 86.04541016 C171.44728761 93.04875869 182.70625252 103.40786096 187.3359375 117.55859375 C190.3573223 133.21647618 188.2841097 147.30662104 179.5 160.6875 C171.83688412 170.54007756 160.58364397 177.04915072 150.36206055 183.97216797 C144.83455856 187.71842191 139.39517175 191.56593405 134 195.5 C127.9037319 199.94184335 121.74132451 204.26442904 115.5 208.5 C108.42788414 213.29958134 101.47157553 218.23488227 94.56079102 223.26342773 C89.08705139 227.23794053 83.54535837 231.09893338 77.95922852 234.91333008 C72.47967954 238.65808292 67.05317841 242.47390921 61.63647461 246.30883789 C55.26165963 250.82074607 48.8645157 255.30022963 42.4621582 259.77294922 C37.6633072 263.12772951 32.87903374 266.50171282 28.10839844 269.89648438 C25.3505343 271.85415851 22.58298857 273.79762263 19.81005859 275.73388672 C18.18741414 276.86890616 16.57175142 278.01389148 14.95703125 279.16015625 C3.05640374 287.24846153 -9.82408911 289.77933474 -24 288 C-32.8089508 285.93569943 -40.03635073 281.44509212 -47.31445312 276.21142578 C-49.14316899 274.89710247 -50.98443711 273.60182477 -52.828125 272.30859375 C-55.68213581 270.30392623 -58.53045356 268.29151094 -61.375 266.2734375 C-66.23549552 262.82815487 -71.11670817 259.41286172 -76 256 C-82.17694518 251.68109314 -88.34563002 247.35101673 -94.5 243 C-103.97727045 236.30083886 -113.48850191 229.65043366 -123 223 C-133.20312503 215.8659812 -143.40128359 208.72563086 -153.56713867 201.53857422 C-158.18441344 198.27621086 -162.81119057 195.02773156 -167.4440918 191.78759766 C-169.14138708 190.60051235 -170.83816883 189.41269242 -172.53442383 188.22412109 C-176.5923835 185.38075399 -180.65495842 182.54472547 -184.73046875 179.7265625 C-201.10874221 168.36330755 -212.88391523 158.35582137 -217 138 C-218.61114358 124.64852323 -214.88227176 112.78908238 -207 102 C-196.65341843 88.87475133 -179.39292505 82.0759644 -165.00463867 74.38623047 C-157.73823521 70.49870724 -150.53510022 66.51723581 -143.375 62.4375 C-135.63384781 58.02743357 -127.84547779 53.72171076 -120 49.5 C-112.1138936 45.25603797 -104.28345045 40.92943281 -96.5 36.5 C-87.73432854 31.51160147 -78.89777235 26.67227202 -70.015625 21.89477539 C-61.83182611 17.4808531 -53.73045033 12.93043994 -45.66015625 8.3125 C-31.2448547 0.09012916 -16.67599263 -6.10806707 0 0 Z M-32.375 37.0625 C-33.65968886 37.79623256 -34.94551877 38.5279705 -36.23242188 39.2578125 C-38.87586866 40.759687 -41.51368514 42.27078368 -44.14746094 43.78955078 C-49.89289641 47.09610972 -55.6987331 50.29263487 -61.5 53.5 C-63.73200054 54.7404722 -65.9637698 55.98136062 -68.1953125 57.22265625 C-75.24799791 61.14070147 -82.31012776 65.04148818 -89.375 68.9375 C-89.97600525 69.26894012 -90.5770105 69.60038025 -91.19622803 69.94186401 C-96.07484104 72.63208462 -100.95403497 75.32125099 -105.83325195 78.01037598 C-114.29498766 82.67408072 -122.75539357 87.34017918 -131.21240234 92.01245117 C-132.40668048 92.67222378 -133.60101667 93.33189131 -134.79541016 93.99145508 C-142.18683182 98.07332998 -149.57038303 102.16887118 -156.93945312 106.29101562 C-158.93586537 107.40579591 -160.9344694 108.51666272 -162.93554688 109.62304688 C-165.58871989 111.09127172 -168.23286972 112.57451982 -170.875 114.0625 C-171.63570801 114.47927002 -172.39641602 114.89604004 -173.18017578 115.32543945 C-178.67664845 118.45518228 -182.92609524 121.77828572 -185 128 C-185.59026938 134.02074767 -184.34826763 138.08320637 -181 143 C-178.46130215 145.43507753 -175.66920056 147.35989357 -172.75 149.3125 C-171.95150635 149.86736084 -171.1530127 150.42222168 -170.33032227 150.99389648 C-167.89781113 152.67920183 -165.45030694 154.34071334 -163 156 C-161.61738308 156.95151918 -160.23580762 157.90455413 -158.85546875 158.859375 C-156.23562658 160.66911731 -153.61013778 162.4701958 -150.98046875 164.265625 C-146.87581538 167.07550837 -142.80986705 169.93841235 -138.75 172.8125 C-132.57444515 177.18388826 -126.38731726 181.53807821 -120.1875 185.875 C-119.353396 186.45854248 -118.51929199 187.04208496 -117.65991211 187.64331055 C-115.10679645 189.42914325 -112.55344245 191.2146346 -110 193 C-99.79687497 200.1340188 -89.59871641 207.27436914 -79.43286133 214.46142578 C-73.11953011 218.92214806 -66.78581401 223.35348257 -60.45019531 227.7824707 C-55.74473222 231.07347777 -51.04670296 234.37444054 -46.36157227 237.69433594 C-44.96588833 238.68127119 -43.56797091 239.66505631 -42.16772461 240.64550781 C-38.64960595 243.109482 -35.17180929 245.61056777 -31.73828125 248.19140625 C-23.00974009 255.02765393 -23.00974009 255.02765393 -12.40625 256.77734375 C-5.28907589 254.47812679 0.55626195 250.36872798 6.5 245.9375 C8.09526909 244.76674919 9.69164376 243.59750352 11.2890625 242.4296875 C12.0821582 241.84928711 12.87525391 241.26888672 13.69238281 240.67089844 C17.04663014 238.24215651 20.4534929 235.89512823 23.875 233.5625 C36.86652761 224.69063487 49.72052069 215.62065753 62.56616211 206.53930664 C68.8827556 202.07615116 75.22016265 197.64300077 81.55859375 193.2109375 C86.88179435 189.48715773 92.19544705 185.75028886 97.5 182 C103.65433073 177.64892308 109.82335811 173.31934237 116 169 C118.51532268 167.23968603 121.03044287 165.4790834 123.54541016 163.71826172 C125.16196652 162.58664011 126.77882102 161.45544428 128.39599609 160.32470703 C144.41384761 150.66262598 144.41384761 150.66262598 156 137 C156.7519639 131.71250648 156.89558564 127.64122231 154.296875 122.87890625 C151.92359034 119.90422803 150.01227623 118.35832111 146.75 116.4375 C146.20263184 116.11289795 145.65526367 115.7882959 145.09130859 115.45385742 C138.32687823 111.50238525 131.3938787 107.83649481 124.49316406 104.13061523 C117.44299388 100.34242361 110.45424424 96.46127078 103.5 92.5 C95.71675015 88.07022122 87.88607766 83.74399522 80 79.5 C71.14890266 74.73666689 62.38023423 69.84634397 53.64453125 64.875 C45.82642822 60.43798655 37.93223109 56.15293026 30.015625 51.89477539 C21.83182611 47.4808531 13.73045033 42.93043994 5.66015625 38.3125 C3.90928167 37.31381537 2.15425764 36.32235893 0.39453125 35.33935547 C-1.11888496 34.49284228 -2.62302352 33.62932404 -4.11328125 32.74267578 C-14.91103375 26.67027108 -22.41986424 31.22695747 -32.375 37.0625 Z " fill="#070202" transform="translate(270,34)"/>
<path d="M0 0 C1.59526909 1.17075081 3.19164376 2.33999648 4.7890625 3.5078125 C5.5821582 4.08821289 6.37525391 4.66861328 7.19238281 5.26660156 C10.54663014 7.69534349 13.9534929 10.04237177 17.375 12.375 C30.36652761 21.24686513 43.22052069 30.31684247 56.06616211 39.39819336 C61.53282935 43.26081106 67.01442885 47.10178765 72.5 50.9375 C78.67683312 55.25656804 84.84562915 59.58648265 91 63.9375 C100.47727045 70.63666114 109.98850191 77.28706634 119.5 83.9375 C122.05453526 85.7236295 124.60898193 87.50988472 127.16308594 89.29663086 C128.83269913 90.46455274 130.50261615 91.63204039 132.17285156 92.79907227 C136.27096135 95.66522745 140.35898646 98.54424059 144.4296875 101.44921875 C145.21061768 102.00528809 145.99154785 102.56135742 146.79614258 103.13427734 C148.2696418 104.18475864 149.74096106 105.23830682 151.2097168 106.29541016 C156.53880875 110.09149365 159.91710832 111.47708129 166.5 110.9375 C172.82631958 108.53880988 178.29252099 104.47319526 183.75 100.5625 C185.52202215 99.30713177 187.29416091 98.05192812 189.06640625 96.796875 C189.96633301 96.15685547 190.86625977 95.51683594 191.79345703 94.85742188 C196.07564836 91.8197931 200.38263549 88.81786181 204.6875 85.8125 C210.80191023 81.53525565 216.90660658 77.24462669 223 72.9375 C233.32809975 65.63706312 243.69619623 58.39391484 254.06152344 51.14648438 C265.56114388 43.10509905 277.04238857 35.03862233 288.5 26.9375 C309.98977837 11.74311813 309.98977837 11.74311813 318.10620117 6.109375 C322.10746361 3.33129239 326.07461588 0.52704436 329.97265625 -2.39453125 C342.37893744 -11.57348828 342.37893744 -11.57348828 349.45703125 -10.625 C355.73488171 -8.8964905 358.71273719 -6.14825292 362.5 -1.0625 C364.37641919 2.69033838 364.12913863 6.97655475 362.86914062 10.90380859 C360.21734103 16.59424839 356.84869343 19.49387942 351.6875 22.9375 C350.90705322 23.47947021 350.12660645 24.02144043 349.32250977 24.57983398 C347.6257319 25.75580385 345.92359628 26.92407243 344.21679688 28.08544922 C341.39654066 30.00802863 338.5950086 31.95553584 335.796875 33.91015625 C331.88256656 36.64394857 327.9634053 39.37047502 324.0390625 42.08984375 C319.28020271 45.39076343 314.53983419 48.71662863 309.8125 52.0625 C303.72155721 56.37322733 297.61557179 60.66177997 291.5 64.9375 C285.32313996 69.2565293 279.15437063 73.5864828 273 77.9375 C262.67196981 85.23803436 252.30380306 92.48108566 241.93847656 99.72851562 C229.99093906 108.08082215 229.99093906 108.08082215 218.07202148 116.47387695 C216.69647417 117.44552844 215.31969205 118.41543429 213.94165039 119.38354492 C210.08580271 122.09470901 206.25838191 124.83927497 202.453125 127.62109375 C187.44019871 138.50564143 174.59311026 145.36897923 155.5 143.9375 C141.43430467 140.96108321 130.32634979 131.79736771 118.87988281 123.62890625 C114.76995078 120.70793691 110.6338676 117.82444354 106.5 114.9375 C99.63150503 110.13545767 92.77674606 105.31463238 85.93359375 100.4765625 C80.46693091 96.6141353 74.98547834 92.77314745 69.5 88.9375 C62.63181445 84.135013 55.77674835 79.314634 48.93359375 74.4765625 C43.46693091 70.6141353 37.98547834 66.77314745 32.5 62.9375 C25.63181445 58.135013 18.77674835 53.314634 11.93359375 48.4765625 C7.31566233 45.21379974 2.68832131 41.96479011 -1.9453125 38.72436523 C-3.6386911 37.53993882 -5.33140774 36.35456541 -7.0234375 35.16821289 C-11.14019053 32.28223756 -15.26408451 29.40799738 -19.40625 26.55859375 C-20.93751116 25.49741193 -22.46876166 24.43621474 -24 23.375 C-24.69996094 22.89869141 -25.39992188 22.42238281 -26.12109375 21.93164062 C-30.34333973 18.99279021 -34.21858105 16.03426247 -36.25 11.125 C-37.08578897 3.81184655 -36.75623171 -0.03283841 -32.5 -6.0625 C-21.82472079 -16.07057426 -9.29266239 -6.92794757 0 0 Z " fill="#080202" transform="translate(92.5,336.0625)"/>
<path d="M0 0 C0.72445312 -0.03738281 1.44890625 -0.07476562 2.1953125 -0.11328125 C8.88572429 0.94977252 14.42556603 5.21528554 19.6875 9.25 C25.42139339 13.55169814 31.25213245 17.66862279 37.1875 21.6875 C43.55382017 26.00598932 49.84238204 30.41090529 56.0625 34.9375 C62.28361627 39.46434046 68.56208506 43.88732002 74.91577148 48.22583008 C79.68254371 51.4834675 84.41272413 54.78905482 89.125 58.125 C95.30055485 62.49638826 101.48768274 66.85057821 107.6875 71.1875 C108.93865601 72.06281372 108.93865601 72.06281372 110.21508789 72.95581055 C112.76820355 74.74164325 115.32155755 76.5271346 117.875 78.3125 C127.38650079 84.96293555 136.89745529 91.61372356 146.375 98.3125 C152.78600762 102.84139102 159.20138329 107.364007 165.625 111.875 C166.47126953 112.47119141 167.31753906 113.06738281 168.18945312 113.68164062 C176.13981369 119.82878923 176.13981369 119.82878923 185.67578125 121.69921875 C195.1844112 120.02718613 203.19961341 112.61025102 210.76953125 107.0390625 C216.19612429 103.05369282 221.71526001 99.20816734 227.25 95.375 C229.2083345 94.01692876 231.16666783 92.65885585 233.125 91.30078125 C234.08535156 90.6351416 235.04570312 89.96950195 236.03515625 89.28369141 C247.21154794 81.5259381 258.33971201 73.69898225 269.44946289 65.84619141 C279.08775274 59.03700657 288.76522398 52.28365105 298.43652344 45.52148438 C307.1553996 39.42460116 315.87153706 33.32413335 324.5625 27.1875 C325.25021484 26.70224854 325.93792969 26.21699707 326.64648438 25.71704102 C330.17655594 23.22461419 333.70114343 20.72483538 337.21875 18.21484375 C340.75158642 15.69625284 344.30038744 13.20182202 347.86132812 10.72314453 C349.18624502 9.79499591 350.50546866 8.85865761 351.81835938 7.91357422 C364.26702359 -1.03591884 364.26702359 -1.03591884 371.7578125 -0.25 C377.31550346 1.2265821 380.68312774 4.70201784 383.875 9.3125 C385.53420653 14.29011958 385.51133908 18.48309527 383.26171875 23.23046875 C381.02405849 27.50424709 378.33615168 29.79409461 374.375 32.4375 C373.7255542 32.89213623 373.0761084 33.34677246 372.40698242 33.81518555 C370.99049684 34.80428467 369.56863001 35.78571215 368.14208984 36.76025391 C365.79575411 38.3667586 363.46859528 39.99818023 361.14453125 41.63671875 C356.92431064 44.60952145 352.69184887 47.56430477 348.45556641 50.51416016 C344.25714733 53.43994586 340.06637931 56.37664277 335.875 59.3125 C330.84071767 62.83718807 325.80589941 66.36110537 320.76953125 69.8828125 C310.11848503 77.33191028 299.48764634 84.80881158 288.875 92.3125 C275.71597035 101.61661277 262.5212022 110.86868192 249.31347656 120.10351562 C247.61341585 121.29232384 245.91346419 122.48128801 244.21362305 123.67041016 C242.5382816 124.84235578 240.86266592 126.01390948 239.18676758 127.18505859 C235.17658312 129.99000934 231.1749757 132.80578921 227.19140625 135.6484375 C210.36220253 147.65470445 195.60258314 157.41241458 174.01953125 153.83984375 C162.23133474 150.71006821 152.60679844 143.09618484 142.9453125 136.00390625 C137.52688771 132.03558766 132.02046695 128.19955883 126.5 124.375 C125.52949707 123.70194824 124.55899414 123.02889648 123.55908203 122.33544922 C121.61115658 120.98464121 119.66307842 119.63405339 117.71484375 118.28369141 C103.69297215 108.55083452 89.74833937 98.70756343 75.81152344 88.85351562 C64.19043003 80.63813199 52.53846938 72.46759067 40.875 64.3125 C18.18774305 48.44958378 18.18774305 48.44958378 7.87109375 41.13671875 C5.20706543 39.24886043 2.53202332 37.37834242 -0.15234375 35.51953125 C-1.41408948 34.63805945 -2.6758095 33.75655085 -3.9375 32.875 C-4.50645996 32.48602539 -5.07541992 32.09705078 -5.66162109 31.69628906 C-9.55786666 28.95838677 -13.01925031 25.98472841 -14.875 21.5 C-15.87434952 12.75569167 -15.87434952 12.75569167 -13.4375 8.0625 C-9.58663436 3.48309221 -6.08549071 0.2014361 0 0 Z " fill="#080202" transform="translate(71.125,245.6875)"/>
</svg>
