<?xml version="1.0" standalone="no"?>
<!DOCTYPE svg PUBLIC "-//W3C//DTD SVG 20010904//EN"
 "http://www.w3.org/TR/2001/REC-SVG-20010904/DTD/svg10.dtd">
<svg version="1.0" xmlns="http://www.w3.org/2000/svg"
 width="512.000000pt" height="512.000000pt" viewBox="0 0 512.000000 512.000000"
 preserveAspectRatio="xMidYMid meet">

<g transform="translate(0.000000,512.000000) scale(0.100000,-0.100000)"
fill="#000000" stroke="none">
<path d="M2330 5110 c-494 -48 -950 -230 -1350 -538 -195 -150 -448 -432 -594
-662 -63 -99 -186 -351 -230 -471 -49 -134 -102 -340 -128 -499 -31 -195 -31
-565 0 -760 45 -276 116 -498 237 -745 132 -269 269 -460 489 -681 221 -220
412 -357 681 -489 247 -121 469 -192 745 -237 195 -31 565 -31 760 0 276 45
498 116 745 237 269 132 460 269 681 489 220 221 357 412 489 681 88 179 132
296 180 476 63 240 78 371 78 649 0 278 -15 409 -78 649 -48 180 -92 297 -180
476 -132 269 -269 460 -489 681 -221 220 -412 357 -681 489 -246 121 -474 193
-740 235 -147 23 -475 34 -615 20z m570 -375 c471 -79 886 -291 1215 -620 276
-277 481 -634 574 -1000 56 -221 65 -299 65 -555 0 -256 -9 -334 -65 -555 -93
-366 -298 -723 -574 -1000 -331 -330 -739 -538 -1220 -622 -141 -24 -529 -24
-670 0 -481 84 -889 292 -1220 622 -330 331 -538 739 -622 1220 -24 141 -24
529 0 670 84 481 292 889 622 1220 364 364 833 584 1360 639 89 9 443 -3 535
-19z"/>
<path d="M1965 3246 c-90 -40 -132 -153 -89 -239 9 -18 109 -125 222 -239
l207 -208 -207 -207 c-113 -115 -213 -222 -222 -240 -39 -78 -5 -187 72 -231
48 -26 119 -29 165 -6 18 9 125 109 240 222 l207 207 213 -212 c116 -117 225
-217 240 -223 151 -56 293 90 232 237 -10 23 -94 116 -222 245 l-207 208 206
208 c132 131 213 221 222 244 51 122 -33 248 -165 248 -22 0 -54 -7 -72 -16
-18 -9 -125 -109 -239 -222 l-208 -207 -207 207 c-132 132 -222 213 -245 222
-45 19 -103 20 -143 2z"/>
</g>
</svg>
