<?xml version="1.0" standalone="no"?>
<!DOCTYPE svg PUBLIC "-//W3C//DTD SVG 20010904//EN"
 "http://www.w3.org/TR/2001/REC-SVG-20010904/DTD/svg10.dtd">
<svg version="1.0" xmlns="http://www.w3.org/2000/svg"
 width="512.000000pt" height="512.000000pt" viewBox="0 0 512.000000 512.000000"
 preserveAspectRatio="xMidYMid meet">

<g transform="translate(0.000000,512.000000) scale(0.100000,-0.100000)"
fill="#000000" stroke="none">
<path d="M2375 4629 c-258 -22 -530 -101 -762 -220 -353 -182 -649 -463 -852
-811 -462 -792 -339 -1808 298 -2470 183 -190 366 -325 586 -433 726 -354
1583 -259 2215 245 97 78 262 244 337 340 372 477 519 1099 398 1691 -210
1036 -1167 1751 -2220 1658z m418 -324 c704 -93 1288 -608 1467 -1290 48 -183
55 -246 55 -460 -1 -214 -13 -305 -61 -472 -83 -289 -224 -532 -433 -747 -356
-366 -820 -552 -1326 -533 -278 11 -529 78 -765 204 -926 497 -1214 1686 -619
2553 270 394 717 674 1179 739 41 6 86 13 100 15 65 9 306 4 403 -9z"/>
<path d="M1842 3330 c-46 -28 -72 -76 -72 -133 0 -27 5 -58 11 -70 6 -12 133
-145 282 -294 l272 -273 -277 -277 c-233 -235 -278 -285 -289 -320 -34 -117
77 -228 194 -194 35 11 85 56 320 289 l277 277 278 -277 c234 -233 284 -278
320 -289 116 -34 227 77 193 194 -11 35 -56 85 -289 320 l-277 277 272 273
c149 149 276 282 282 294 6 12 11 43 11 70 0 90 -63 153 -153 153 -27 0 -58
-5 -70 -11 -12 -6 -145 -133 -294 -282 l-273 -272 -272 272 c-150 149 -283
276 -295 282 -35 18 -114 13 -151 -9z"/>
</g>
</svg>
