<?xml version="1.0" encoding="UTF-8"?>
<svg version="1.1" xmlns="http://www.w3.org/2000/svg" width="512" height="512">
<path d="M0 0 C40.73258691 37.09857902 66.02515215 90.53183589 68.75683594 145.60009766 C71.35658136 205.24748248 50.85149524 260.57794808 10.75683594 304.60009766 C-27.93161451 345.99314124 -82.40228689 369.90666696 -138.90722656 371.81884766 C-198.08328558 373.11538802 -253.02557579 351.0823785 -295.70410156 310.33056641 C-335.85961751 271.24795203 -358.30392739 216.78829495 -359.52661133 160.9831543 C-360.09627253 102.0016777 -337.31308052 47.55856006 -296.32836914 5.44873047 C-227.86859712 -63.56894457 -117.13368472 -75.618845 0 0 Z " fill="#E63946" transform="translate(401.2431640625,98.39990234375)"/>
<path d="M0 0 C7.91576372 4.11309169 13.97744987 10.58493566 20.16015625 16.8671875 C21.20038276 17.91302251 22.24128345 18.95818735 23.28282166 20.00271606 C25.99708057 22.72832509 28.70220054 25.46282544 31.40539551 28.19940186 C34.17551458 31.00043607 36.95434975 33.79279493 39.73242188 36.5859375 C45.1634228 42.04892858 50.58478023 47.52136051 56 53 C59.62808228 51.47114858 61.90996607 49.3155214 64.6574707 46.52197266 C65.57555008 45.59405914 66.49362946 44.66614563 67.43952942 43.71011353 C67.92583139 43.21395161 68.41213337 42.71778969 68.91317177 42.20659256 C70.44352593 40.64596681 71.98055449 39.0922058 73.51957703 37.54013062 C77.89301965 33.12703516 82.25370803 28.70141496 86.61108398 24.27246094 C89.28066139 21.5599735 91.95766596 18.85499125 94.63905907 16.15418625 C95.65500083 15.12773181 96.66802114 14.09837672 97.67794228 13.06599808 C109.72705013 0.74946957 109.72705013 0.74946957 117.4296875 -0.6015625 C125.59815197 -0.65713029 131.05784254 0.15855708 137 6 C142.2937235 11.39360508 142.60177754 17.00780197 142.76171875 24.33984375 C140.69837136 34.25449247 132.08999408 41.31321472 125.1328125 48.16015625 C124.08697749 49.20038276 123.04181265 50.24128345 121.99728394 51.28282166 C119.27167491 53.99708057 116.53717456 56.70220054 113.80059814 59.40539551 C110.99956393 62.17551458 108.20720507 64.95434975 105.4140625 67.73242188 C99.95107142 73.1634228 94.47863949 78.58478023 89 84 C90.52885142 87.62808228 92.6844786 89.90996607 95.47802734 92.6574707 C96.40594086 93.57555008 97.33385437 94.49362946 98.28988647 95.43952942 C98.78604839 95.92583139 99.28221031 96.41213337 99.79340744 96.91317177 C101.35403319 98.44352593 102.9077942 99.98055449 104.45986938 101.51957703 C108.87296484 105.89301965 113.29858504 110.25370803 117.72753906 114.61108398 C120.4400265 117.28066139 123.14500875 119.95766596 125.84581375 122.63905907 C126.87226819 123.65500083 127.90162328 124.66802114 128.93400192 125.67794228 C141.31025943 137.78548227 141.31025943 137.78548227 142.53125 145.24609375 C142.46603919 151.90574748 142.36264913 157.68264372 138 163 C132.61668029 167.93922292 128.24458018 170.15003411 120.875 170.4375 C119.79992187 170.49808594 118.72484375 170.55867187 117.6171875 170.62109375 C107.73305359 168.92392605 100.58985663 159.99150482 93.83984375 153.1328125 C92.79961724 152.08697749 91.75871655 151.04181265 90.71717834 149.99728394 C88.00291943 147.27167491 85.29779946 144.53717456 82.59460449 141.80059814 C79.82448542 138.99956393 77.04565025 136.20720507 74.26757812 133.4140625 C68.8365772 127.95107142 63.41521977 122.47863949 58 117 C54.37250619 118.52771678 52.09986871 120.68013023 49.35839844 123.47802734 C48.44354675 124.40594086 47.52869507 125.33385437 46.58612061 126.28988647 C45.85910069 127.03412935 45.85910069 127.03412935 45.11739349 127.79340744 C43.59133111 129.35439433 42.0581619 130.90806515 40.52276611 132.45986938 C36.15936799 136.8720328 31.80718308 141.29512861 27.46435547 145.72753906 C24.80349625 148.44226491 22.13273084 151.14692109 19.45581818 153.84581375 C18.44258741 154.87138378 17.43315636 155.90072341 16.42778778 156.93400192 C4.72441913 168.95919652 4.72441913 168.95919652 -4.30859375 170.6015625 C-12.13774658 170.66020784 -17.24591085 169.48067671 -23 164 C-26.98488002 159.37132321 -28.20225382 154.90585668 -28.4375 148.875 C-28.49808594 147.79992187 -28.55867187 146.72484375 -28.62109375 145.6171875 C-26.92392605 135.73305359 -17.99150482 128.58985663 -11.1328125 121.83984375 C-10.08697749 120.79961724 -9.04181265 119.75871655 -7.99728394 118.71717834 C-5.27167491 116.00291943 -2.53717456 113.29779946 0.19940186 110.59460449 C3.00043607 107.82448542 5.79279493 105.04565025 8.5859375 102.26757812 C14.04892858 96.8365772 19.52136051 91.41521977 25 86 C23.47114858 82.37191772 21.3155214 80.09003393 18.52197266 77.3425293 C17.59405914 76.42444992 16.66614563 75.50637054 15.71011353 74.56047058 C15.21395161 74.07416861 14.71778969 73.58786663 14.20659256 73.08682823 C12.64596681 71.55647407 11.0922058 70.01944551 9.54013062 68.48042297 C5.12703516 64.10698035 0.70141496 59.74629197 -3.72753906 55.38891602 C-6.4400265 52.71933861 -9.14500875 50.04233404 -11.84581375 47.36094093 C-12.87226819 46.34499917 -13.90162328 45.33197886 -14.93400192 44.32205772 C-27.25053043 32.27294987 -27.25053043 32.27294987 -28.6015625 24.5703125 C-28.65713029 16.40184803 -27.84144292 10.94215746 -22 5 C-15.98599021 -0.90263924 -8.06044661 -1.67746754 0 0 Z " fill="#ECE9E8" transform="translate(199,171)"/>
</svg>
