<?xml version="1.0" encoding="UTF-8"?>
<svg version="1.1" xmlns="http://www.w3.org/2000/svg" width="499" height="500">
<path d="M0 0 C2.26080356 1.07639576 4.52221026 1.95314138 6.87109375 2.81640625 C21.0200245 8.4174933 33.91498877 16.49743565 46.37109375 25.12890625 C48.88468828 26.75317828 51.40159382 28.37106468 53.9296875 29.97265625 C54.40535156 30.35421875 54.88101562 30.73578125 55.37109375 31.12890625 C55.37109375 31.78890625 55.37109375 32.44890625 55.37109375 33.12890625 C56.20833984 33.50402344 56.20833984 33.50402344 57.0625 33.88671875 C59.75110709 35.33338043 61.9442861 37.07311572 64.30859375 39.00390625 C65.14261719 39.68195312 65.97664063 40.36 66.8359375 41.05859375 C68.09083984 42.08339844 68.09083984 42.08339844 69.37109375 43.12890625 C70.30050781 43.83273438 71.22992188 44.5365625 72.1875 45.26171875 C72.90808594 45.87789062 73.62867188 46.4940625 74.37109375 47.12890625 C74.37109375 47.78890625 74.37109375 48.44890625 74.37109375 49.12890625 C75.36109375 49.45890625 76.35109375 49.78890625 77.37109375 50.12890625 C77.37109375 50.78890625 77.37109375 51.44890625 77.37109375 52.12890625 C78.36109375 52.45890625 79.35109375 52.78890625 80.37109375 53.12890625 C80.37109375 53.78890625 80.37109375 54.44890625 80.37109375 55.12890625 C81.36109375 55.45890625 82.35109375 55.78890625 83.37109375 56.12890625 C83.37109375 56.78890625 83.37109375 57.44890625 83.37109375 58.12890625 C84.36109375 58.45890625 85.35109375 58.78890625 86.37109375 59.12890625 C87.91428247 60.82271929 89.38509647 62.58333127 90.80859375 64.37890625 C91.95134766 65.80976563 91.95134766 65.80976563 93.1171875 67.26953125 C94.23287109 68.68492188 94.23287109 68.68492188 95.37109375 70.12890625 C96.12519531 71.03125 96.87929688 71.93359375 97.65625 72.86328125 C99.37109375 75.12890625 99.37109375 75.12890625 99.37109375 77.12890625 C100.36109375 77.45890625 101.35109375 77.78890625 102.37109375 78.12890625 C103.94921875 80.28125 103.94921875 80.28125 105.62109375 83.06640625 C107.90530511 86.79201723 110.24153814 90.40509623 112.80859375 93.94140625 C122.02639691 107.09213875 128.27137748 121.33561899 134.37109375 136.12890625 C134.83177246 137.23951416 134.83177246 137.23951416 135.30175781 138.37255859 C158.98606713 196.15724006 155.86351425 262.57295899 133.37109375 320.12890625 C131.84869448 323.54814605 130.13076482 326.82710585 128.37109375 330.12890625 C126.98320538 332.87248971 125.61549802 335.62606053 124.24609375 338.37890625 C123.57714285 339.71760784 122.90788339 341.05615529 122.23828125 342.39453125 C121.9247168 343.02166016 121.61115234 343.64878906 121.28808594 344.29492188 C119.98242188 346.90625 118.67675781 349.51757812 117.37109375 352.12890625 C116.71109375 352.12890625 116.05109375 352.12890625 115.37109375 352.12890625 C115.2517749 352.71534912 115.13245605 353.30179199 115.00952148 353.90600586 C114.34786709 356.20977765 113.50047648 357.72286203 112.15625 359.6953125 C111.71732422 360.34564453 111.27839844 360.99597656 110.82617188 361.66601562 C110.36662109 362.33439453 109.90707031 363.00277344 109.43359375 363.69140625 C108.97791016 364.36365234 108.52222656 365.03589844 108.05273438 365.72851562 C107.20453438 366.97908282 106.35396794 368.22805071 105.50024414 369.47485352 C104.44626052 371.01879709 103.40804835 372.57347435 102.37109375 374.12890625 C101.71109375 374.12890625 101.05109375 374.12890625 100.37109375 374.12890625 C100.10296875 374.87140625 99.83484375 375.61390625 99.55859375 376.37890625 C98.41832624 379.01952574 97.27729069 380.98443469 95.37109375 383.12890625 C94.71109375 383.12890625 94.05109375 383.12890625 93.37109375 383.12890625 C93.03078125 383.93328125 93.03078125 383.93328125 92.68359375 384.75390625 C89.78291544 390.00275271 85.9990788 393.45025147 81.37109375 397.12890625 C80.77296875 397.89203125 80.17484375 398.65515625 79.55859375 399.44140625 C77.06163524 402.50909813 74.28241971 404.92774296 71.2734375 407.48046875 C69.36276926 409.08161486 69.36276926 409.08161486 67.75 410.83984375 C66.37109375 412.12890625 66.37109375 412.12890625 64.37109375 412.12890625 C64.04109375 413.11890625 63.71109375 414.10890625 63.37109375 415.12890625 C61.82739258 416.52001953 61.82739258 416.52001953 59.828125 417.94921875 C59.09134521 418.47999023 58.35456543 419.01076172 57.59545898 419.55761719 C56.79954346 420.11739258 56.00362793 420.67716797 55.18359375 421.25390625 C54.36640869 421.83430664 53.54922363 422.41470703 52.70727539 423.01269531 C36.58273314 434.39324325 20.0607882 443.75348515 1.99609375 451.75390625 C0.48801147 452.42957642 0.48801147 452.42957642 -1.05053711 453.11889648 C-2.4621814 453.73099976 -2.4621814 453.73099976 -3.90234375 454.35546875 C-4.74200684 454.72236816 -5.58166992 455.08926758 -6.44677734 455.46728516 C-8.62890625 456.12890625 -8.62890625 456.12890625 -11.62890625 455.12890625 C-18.02081033 423.46767469 -20.48604026 394.11556204 -4.75390625 364.87890625 C10.98816868 335.19697638 18.92982473 309.84766214 9.23828125 276.7265625 C3.39025523 259.2088269 -5.19073171 242.00330554 -21.12890625 231.81640625 C-21.95390625 231.25953125 -22.77890625 230.70265625 -23.62890625 230.12890625 C-23.62890625 229.46890625 -23.62890625 228.80890625 -23.62890625 228.12890625 C-24.32371094 227.86851562 -25.01851563 227.608125 -25.734375 227.33984375 C-28.92891358 226.00339711 -31.89234883 224.39487958 -34.94140625 222.75390625 C-42.55686134 218.80973216 -50.2858559 216.91284142 -58.62890625 215.12890625 C-59.47195313 214.91492188 -60.315 214.7009375 -61.18359375 214.48046875 C-88.54758766 207.56429446 -123.86128914 210.08197459 -148.609375 224.21484375 C-152.7220489 226.82184273 -156.63014653 229.65109311 -160.484375 232.625 C-162.62890625 234.12890625 -162.62890625 234.12890625 -164.62890625 234.12890625 C-164.95890625 235.11890625 -165.28890625 236.10890625 -165.62890625 237.12890625 C-166.28890625 237.12890625 -166.94890625 237.12890625 -167.62890625 237.12890625 C-167.95890625 238.11890625 -168.28890625 239.10890625 -168.62890625 240.12890625 C-169.28890625 240.12890625 -169.94890625 240.12890625 -170.62890625 240.12890625 C-170.95890625 241.11890625 -171.28890625 242.10890625 -171.62890625 243.12890625 C-172.28890625 243.12890625 -172.94890625 243.12890625 -173.62890625 243.12890625 C-174.02335937 243.9796875 -174.02335937 243.9796875 -174.42578125 244.84765625 C-175.71911989 247.29996069 -177.23013979 249.40084347 -178.87890625 251.62890625 C-190.72873774 268.44085468 -194.73209151 287.34501066 -192.3203125 307.73828125 C-191.50889768 311.78817471 -190.12540612 315.30217125 -188.44140625 319.06640625 C-186.27304907 324.26884531 -186.16537606 328.69544089 -187.62890625 334.12890625 C-189.4832849 338.18166422 -191.68841745 341.95063731 -194.00390625 345.75390625 C-200.84187014 357.21871685 -200.84187014 357.21871685 -202.62890625 370.12890625 C-202.29890625 371.11890625 -201.96890625 372.10890625 -201.62890625 373.12890625 C-200.93023437 373.25007813 -200.2315625 373.37125 -199.51171875 373.49609375 C-198.60164062 373.66367187 -197.6915625 373.83125 -196.75390625 374.00390625 C-195.39652344 374.24753906 -195.39652344 374.24753906 -194.01171875 374.49609375 C-191.62890625 375.12890625 -191.62890625 375.12890625 -189.62890625 377.12890625 C-189.403182 380.73679378 -189.3111781 384.30642189 -189.32617188 387.91992188 C-189.30815709 390.47945469 -189.30815709 390.47945469 -188.62890625 394.12890625 C-186.24773215 396.24054122 -186.24773215 396.24054122 -183.62890625 397.12890625 C-183.89703125 398.28390625 -184.16515625 399.43890625 -184.44140625 400.62890625 C-184.9294303 404.33138205 -184.38825821 406.02694228 -182.25390625 409.06640625 C-178.51749248 414.41744757 -178.43499657 419.22672464 -178.86328125 425.63671875 C-178.9303125 426.87164062 -178.99734375 428.1065625 -179.06640625 429.37890625 C-179.16824219 430.5390625 -179.27007812 431.69921875 -179.375 432.89453125 C-178.55697419 436.44073738 -178.18004687 436.96535933 -175.3671875 439.02734375 C-169.88851047 442.00194987 -164.4679487 441.71639991 -158.37890625 441.50390625 C-157.32316406 441.48972656 -156.26742187 441.47554688 -155.1796875 441.4609375 C-148.8450555 441.34463459 -142.57759565 440.91962677 -136.27563477 440.2734375 C-129.99152702 439.93027803 -124.31660172 441.48296927 -119.3359375 445.3671875 C-115.32808964 449.50343323 -110.62890625 455.2268837 -110.62890625 461.12890625 C-109.96890625 461.12890625 -109.30890625 461.12890625 -108.62890625 461.12890625 C-107.63890625 464.09890625 -106.64890625 467.06890625 -105.62890625 470.12890625 C-119.95544329 470.26963844 -133.57692884 468.34194245 -147.56640625 465.25390625 C-148.67870605 465.00946777 -149.79100586 464.7650293 -150.93701172 464.51318359 C-173.18099789 459.41967151 -194.84311865 450.43584161 -214.62890625 439.12890625 C-215.73492187 438.51144531 -216.8409375 437.89398438 -217.98046875 437.2578125 C-224.47069059 433.56906616 -230.57751991 429.49298693 -236.62890625 425.12890625 C-237.34691406 424.64035156 -238.06492187 424.15179688 -238.8046875 423.6484375 C-240.44813926 422.52535724 -242.0447787 421.33422069 -243.62890625 420.12890625 C-243.62890625 419.46890625 -243.62890625 418.80890625 -243.62890625 418.12890625 C-244.61890625 418.12890625 -245.60890625 418.12890625 -246.62890625 418.12890625 C-248.33810486 416.50588572 -249.99832819 414.83089648 -251.62890625 413.12890625 C-254.51849101 410.74626619 -257.45399573 408.43151095 -260.3984375 406.1171875 C-261.50251953 405.13298828 -261.50251953 405.13298828 -262.62890625 404.12890625 C-262.62890625 403.46890625 -262.62890625 402.80890625 -262.62890625 402.12890625 C-263.61890625 401.79890625 -264.60890625 401.46890625 -265.62890625 401.12890625 C-265.62890625 400.46890625 -265.62890625 399.80890625 -265.62890625 399.12890625 C-266.61890625 398.79890625 -267.60890625 398.46890625 -268.62890625 398.12890625 C-268.62890625 397.46890625 -268.62890625 396.80890625 -268.62890625 396.12890625 C-269.61890625 395.79890625 -270.60890625 395.46890625 -271.62890625 395.12890625 C-281.53758881 385.79984022 -290.07784446 373.38720768 -297.62890625 362.12890625 C-298.13808594 361.39542969 -298.64726562 360.66195313 -299.171875 359.90625 C-305.61197219 350.51927029 -310.65065744 340.34536464 -315.62890625 330.12890625 C-316.11230469 329.15695312 -316.59570312 328.185 -317.09375 327.18359375 C-323.65416668 313.57551459 -328.2824346 299.34589009 -331.87890625 284.69140625 C-332.22985352 283.2842334 -332.22985352 283.2842334 -332.58789062 281.84863281 C-336.67882695 264.42405733 -338.12636259 247.20157126 -338.02001953 229.3359375 C-338.00391716 226.13107779 -338.01998618 222.92747855 -338.0390625 219.72265625 C-338.05814014 200.67066601 -335.86407417 182.46685453 -330.62890625 164.12890625 C-330.40831543 163.34660645 -330.18772461 162.56430664 -329.96044922 161.75830078 C-325.70192968 146.77006809 -321.09249876 131.8728388 -313.62890625 118.12890625 C-313.14421875 117.2265625 -312.65953125 116.32421875 -312.16015625 115.39453125 C-311.14194958 113.51396586 -310.11593031 111.63760891 -309.08203125 109.765625 C-308.20356554 108.1716348 -307.33571419 106.57164051 -306.48828125 104.9609375 C-299.86286066 92.52660942 -291.41691705 81.10284242 -282.62890625 70.12890625 C-282.18885254 69.56703613 -281.74879883 69.00516602 -281.29541016 68.42626953 C-280.11927824 66.95578188 -278.87846153 65.53753389 -277.62890625 64.12890625 C-276.96890625 64.12890625 -276.30890625 64.12890625 -275.62890625 64.12890625 C-275.38124512 63.55599854 -275.13358398 62.98309082 -274.87841797 62.39282227 C-273.43410256 59.77595302 -271.75570319 58.01311102 -269.63671875 55.90625 C-268.84910156 55.12056641 -268.06148438 54.33488281 -267.25 53.52539062 C-266.42628906 52.71392578 -265.60257812 51.90246094 -264.75390625 51.06640625 C-263.93792969 50.25107422 -263.12195313 49.43574219 -262.28125 48.59570312 C-252.74444395 39.12890625 -252.74444395 39.12890625 -249.62890625 39.12890625 C-249.29890625 38.13890625 -248.96890625 37.14890625 -248.62890625 36.12890625 C-247.00585938 34.69018555 -247.00585938 34.69018555 -244.91015625 33.203125 C-244.141875 32.65333984 -243.37359375 32.10355469 -242.58203125 31.53710938 C-241.7725 30.96927734 -240.96296875 30.40144531 -240.12890625 29.81640625 C-239.3503125 29.26017578 -238.57171875 28.70394531 -237.76953125 28.13085938 C-235.40079852 26.44647079 -233.01753973 24.78492836 -230.62890625 23.12890625 C-229.80519531 22.54963379 -228.98148437 21.97036133 -228.1328125 21.37353516 C-227.33746094 20.82487793 -226.54210937 20.2762207 -225.72265625 19.7109375 C-225.00787109 19.21440674 -224.29308594 18.71787598 -223.55664062 18.20629883 C-221.62890625 17.12890625 -221.62890625 17.12890625 -218.62890625 17.12890625 C-218.62890625 16.46890625 -218.62890625 15.80890625 -218.62890625 15.12890625 C-206.23515297 8.35606011 -193.76960848 2.31059986 -180.62890625 -2.87109375 C-179.48679688 -3.33128906 -178.3446875 -3.79148437 -177.16796875 -4.265625 C-123.56704515 -24.70665519 -52.127038 -25.30977948 0 0 Z M-176.62890625 25.12890625 C-177.81806641 25.44746582 -177.81806641 25.44746582 -179.03125 25.77246094 C-185.11006015 27.4712292 -190.56317477 29.7897174 -196.12890625 32.75390625 C-196.95479248 33.1926709 -197.78067871 33.63143555 -198.6315918 34.08349609 C-209.2284338 39.89092887 -219.72394961 48.23892617 -223.62890625 60.12890625 C-224.74856066 69.12149901 -223.28326687 75.47036741 -218.62890625 83.12890625 C-217.95042662 84.4562674 -217.27971205 85.78775971 -216.62890625 87.12890625 C-217.32757813 87.25394531 -218.02625 87.37898438 -218.74609375 87.5078125 C-238.44720449 91.75236075 -257.11664529 103.16635363 -271.875 116.5859375 C-273.62890625 118.12890625 -273.62890625 118.12890625 -275.8515625 119.640625 C-276.73134766 120.37732422 -276.73134766 120.37732422 -277.62890625 121.12890625 C-277.62890625 122.11890625 -277.62890625 123.10890625 -277.62890625 124.12890625 C-279.11390625 124.62390625 -279.11390625 124.62390625 -280.62890625 125.12890625 C-280.62890625 125.78890625 -280.62890625 126.44890625 -280.62890625 127.12890625 C-281.28890625 127.12890625 -281.94890625 127.12890625 -282.62890625 127.12890625 C-290.70806721 136.80443154 -294.62730554 146.50763217 -293.62890625 159.12890625 C-291.954664 168.43707878 -286.07486961 174.66417876 -278.62890625 180.12890625 C-255.3324077 192.4393299 -226.33343494 192.196839 -201.359375 185.21484375 C-198.40372764 184.28148143 -195.52314212 183.23682456 -192.62890625 182.12890625 C-191.66855469 181.79375 -190.70820313 181.45859375 -189.71875 181.11328125 C-176.81416578 176.28468847 -165.04767282 167.124332 -155.62890625 157.12890625 C-155.62890625 156.46890625 -155.62890625 155.80890625 -155.62890625 155.12890625 C-154.63890625 154.79890625 -153.64890625 154.46890625 -152.62890625 154.12890625 C-150.28547244 150.99822514 -148.48005755 147.56820374 -146.62890625 144.12890625 C-146.10683594 143.21625 -146.10683594 143.21625 -145.57421875 142.28515625 C-143.30569205 137.53205269 -143.32277245 132.61456931 -143.25390625 127.44140625 C-143.2398877 126.70398193 -143.22586914 125.96655762 -143.21142578 125.20678711 C-143.25191097 120.63144129 -143.61770953 117.62213248 -146.62890625 114.12890625 C-152.38369821 109.16480909 -157.69301009 108.28377776 -165.12890625 108.44140625 C-166.57813477 108.46291748 -166.57813477 108.46291748 -168.05664062 108.48486328 C-184.10396369 109.07773158 -196.68154622 116.29367343 -208.515625 126.8046875 C-209.8434095 128.09571646 -209.8434095 128.09571646 -209.62890625 130.12890625 C-210.28890625 130.12890625 -210.94890625 130.12890625 -211.62890625 130.12890625 C-217.80698154 138.62375978 -220.71012883 146.60288638 -219.62890625 157.12890625 C-218.23129962 160.53333265 -216.93412639 162.3893167 -213.62890625 164.12890625 C-210.90853689 164.37384372 -208.37066259 164.26599407 -205.62890625 164.12890625 C-206.47117553 161.86875736 -206.47117553 161.86875736 -209.06640625 161.25390625 C-211.62890625 160.12890625 -211.62890625 160.12890625 -212.765625 158.35546875 C-214.54520102 153.76561206 -214.44818581 148.60445907 -212.90625 143.9453125 C-211.92730548 141.91212004 -210.83745589 140.03377257 -209.62890625 138.12890625 C-209.30148438 137.5565625 -208.9740625 136.98421875 -208.63671875 136.39453125 C-201.48675634 125.0172188 -187.44813229 116.72494668 -174.859375 112.81640625 C-167.71401371 111.29574895 -159.2529499 110.56669573 -152.62890625 114.12890625 C-148.82687202 123.00031945 -150.31694432 132.34232067 -153.62890625 141.12890625 C-156.49966976 146.9281785 -159.75774081 151.82415539 -164.62890625 156.12890625 C-165.28761719 156.74378906 -165.94632812 157.35867187 -166.625 157.9921875 C-187.56489552 177.26269794 -215.25506443 184.18387625 -243.1484375 183.4765625 C-254.03676883 182.95252516 -265.10777191 180.26823502 -273.62890625 173.12890625 C-279.07131827 166.91269157 -280.96114442 159.88131476 -280.50390625 151.75390625 C-279.68114504 144.77495532 -277.38300962 138.47669439 -273.37890625 132.69140625 C-271.34692543 130.23318041 -271.34692543 130.23318041 -271.62890625 127.12890625 C-270.96890625 127.12890625 -270.30890625 127.12890625 -269.62890625 127.12890625 C-268.16260055 125.40930897 -268.16260055 125.40930897 -266.62890625 123.19140625 C-261.8919084 116.90194692 -256.18515433 111.4997383 -249.62890625 107.12890625 C-249.62890625 106.46890625 -249.62890625 105.80890625 -249.62890625 105.12890625 C-249.10296875 105.04125 -248.57703125 104.95359375 -248.03515625 104.86328125 C-244.77094025 103.86705948 -242.03338522 102.12597625 -239.12890625 100.37890625 C-221.06990136 89.82435802 -221.06990136 89.82435802 -211.62890625 90.12890625 C-209.03573694 91.18506461 -206.63651304 92.44303608 -204.1796875 93.78515625 C-194.02194066 99.13625106 -180.58484022 100.92648647 -169.4921875 97.79296875 C-164.83390097 96.13278278 -161.01988078 94.64519148 -158.62890625 90.12890625 C-157.87890625 87.62890625 -157.87890625 87.62890625 -158.62890625 85.12890625 C-165.00413908 79.79150202 -171.27595052 79.93403069 -179.19140625 79.94140625 C-180.08311523 79.94221191 -180.97482422 79.94301758 -181.89355469 79.94384766 C-188.63386518 80.00619003 -195.04819858 80.6071176 -201.62890625 82.12890625 C-202.45390625 82.3196875 -203.27890625 82.51046875 -204.12890625 82.70703125 C-205.96894214 83.1542622 -207.80040945 83.63661865 -209.62890625 84.12890625 C-212.99114766 75.71380487 -213.9606714 67.13768568 -210.61328125 58.51171875 C-208.07796291 53.74596212 -204.56849628 47.59870127 -199.62890625 45.12890625 C-199.62890625 44.46890625 -199.62890625 43.80890625 -199.62890625 43.12890625 C-199.06945312 42.8659375 -198.51 42.60296875 -197.93359375 42.33203125 C-195.4035581 41.01126687 -193.11959651 39.47520788 -190.75390625 37.87890625 C-174.47430225 27.47383312 -156.56330168 22.64637363 -137.39453125 25.6328125 C-133.53451549 26.63207694 -131.11318671 27.7154961 -128.06640625 30.31640625 C-124.67243307 36.95678855 -125.55486766 42.29677913 -127.62890625 49.12890625 C-128.28890625 49.12890625 -128.94890625 49.12890625 -129.62890625 49.12890625 C-130.10328125 49.76828125 -130.57765625 50.40765625 -131.06640625 51.06640625 C-135.08496463 54.30085568 -139.60712784 53.95574148 -144.62890625 54.12890625 C-144.62890625 54.78890625 -144.62890625 55.44890625 -144.62890625 56.12890625 C-141.19143033 58.42055686 -139.66350134 58.2357236 -135.68359375 57.6015625 C-130.08696962 56.31412615 -126.24394493 53.5050057 -122.62890625 49.12890625 C-120.10914917 44.88678356 -118.62890625 41.41652498 -118.62890625 36.44140625 C-120.45761428 30.3838109 -123.18170322 26.94398277 -128.65234375 23.98828125 C-134.86601208 21.28668632 -140.17323775 20.74285039 -146.87890625 20.75390625 C-148.32958496 20.7552356 -148.32958496 20.7552356 -149.80957031 20.7565918 C-159.10793873 20.90688541 -167.71646949 22.58894384 -176.62890625 25.12890625 Z M-10.62890625 57.12890625 C-22.34348685 64.2719432 -30.80948517 75.82538181 -37.90625 87.3515625 C-39.62293225 90.1192747 -41.42369098 92.81016562 -43.25390625 95.50390625 C-50.59970958 106.47956943 -57.86530235 117.67925526 -64.00390625 129.37890625 C-71.19428518 142.82914449 -82.90579017 152.99345222 -95.62890625 161.12890625 C-96.47453125 161.67417969 -97.32015625 162.21945313 -98.19140625 162.78125 C-106.00753081 167.65441302 -113.17481984 171.48206747 -122.62890625 170.12890625 C-126.26357704 168.50490441 -127.40299321 167.46777581 -129.62890625 164.12890625 C-131.00982631 156.42144543 -128.60226645 148.63070402 -124.35986328 142.20751953 C-121.95597925 138.80993268 -119.44583366 135.50632853 -116.89453125 132.21875 C-114.43179976 129.49867274 -114.43179976 129.49867274 -114.62890625 127.12890625 C-113.14390625 126.63390625 -113.14390625 126.63390625 -111.62890625 126.12890625 C-111.62890625 125.46890625 -111.62890625 124.80890625 -111.62890625 124.12890625 C-110.85160156 123.78666016 -110.85160156 123.78666016 -110.05859375 123.4375 C-106.09135368 121.30080318 -102.55550724 118.52226633 -98.9375 115.84960938 C-93.84336399 112.14227178 -88.97781218 109.06256889 -82.62890625 108.12890625 C-84.10537176 111.64430032 -85.56965557 115.01886926 -87.37890625 118.37890625 C-89.00620766 121.13108718 -89.00620766 121.13108718 -87.62890625 124.12890625 C-84.41564368 125.07810085 -84.41564368 125.07810085 -80.62890625 125.12890625 C-77.04138719 122.89516797 -75.11275144 121.11858959 -73.25390625 117.31640625 C-72.33417524 112.62577808 -71.59934719 108.18802437 -73.81640625 103.75390625 C-76.64164196 101.2209363 -78.87755856 100.09977108 -82.7421875 100.1640625 C-95.76962702 101.3682796 -109.09181854 109.16897058 -117.62890625 119.12890625 C-117.62890625 119.78890625 -117.62890625 120.44890625 -117.62890625 121.12890625 C-119.11390625 121.62390625 -119.11390625 121.62390625 -120.62890625 122.12890625 C-122.33784776 124.05256846 -123.89850987 125.95416608 -125.44140625 128.00390625 C-126.10462891 128.87704468 -126.10462891 128.87704468 -126.78125 129.76782227 C-133.75093472 139.13078871 -139.9945794 149.07629881 -138.62890625 161.12890625 C-136.80356034 166.40212778 -134.02171422 168.92581711 -129.62890625 172.12890625 C-121.46383388 174.85059704 -113.72466153 174.05249455 -106.1237793 170.36303711 C-102.91717623 168.68532229 -99.7699917 166.92690689 -96.62890625 165.12890625 C-95.3015246 164.45046674 -93.9716453 163.77642001 -92.62890625 163.12890625 C-92.62890625 162.46890625 -92.62890625 161.80890625 -92.62890625 161.12890625 C-91.63890625 161.12890625 -90.64890625 161.12890625 -89.62890625 161.12890625 C-88.25079402 159.84190888 -86.92333442 158.50004128 -85.62890625 157.12890625 C-84.06484741 155.85487156 -82.48135351 154.60430709 -80.87890625 153.37890625 C-80.0796875 152.7653125 -79.28046875 152.15171875 -78.45703125 151.51953125 C-77.85375 151.060625 -77.25046875 150.60171875 -76.62890625 150.12890625 C-77.21800781 151.22589844 -77.80710937 152.32289063 -78.4140625 153.453125 C-79.17391622 154.90716607 -79.93299017 156.36161481 -80.69140625 157.81640625 C-81.08134766 158.53763672 -81.47128906 159.25886719 -81.87304688 160.00195312 C-84.14847026 164.33812528 -84.14847026 164.33812528 -84.375 169.1484375 C-84.12878906 169.80199219 -83.88257813 170.45554687 -83.62890625 171.12890625 C-81.97890625 171.45890625 -80.32890625 171.78890625 -78.62890625 172.12890625 C-77.80390625 171.18015625 -76.97890625 170.23140625 -76.12890625 169.25390625 C-75.66484375 168.72023438 -75.20078125 168.1865625 -74.72265625 167.63671875 C-73.43318167 166.16954204 -73.43318167 166.16954204 -73.62890625 164.12890625 C-72.96890625 164.12890625 -72.30890625 164.12890625 -71.62890625 164.12890625 C-70.34784957 162.47949969 -70.34784957 162.47949969 -69.06640625 160.31640625 C-59.91630718 146.20541009 -48.01369272 134.22935856 -34.62890625 124.12890625 C-33.87222656 123.53980469 -33.11554688 122.95070313 -32.3359375 122.34375 C-27.04609375 118.26796875 -27.04609375 118.26796875 -23.62890625 117.12890625 C-23.62890625 116.46890625 -23.62890625 115.80890625 -23.62890625 115.12890625 C-22.32953125 114.72671875 -22.32953125 114.72671875 -21.00390625 114.31640625 C-17.71098661 113.15778638 -14.7176275 111.74680786 -11.62890625 110.12890625 C-12.2720671 113.37834284 -13.44909649 115.76135846 -15.17578125 118.578125 C-15.69140625 119.42697266 -16.20703125 120.27582031 -16.73828125 121.15039062 C-17.2796875 122.03017578 -17.82109375 122.90996094 -18.37890625 123.81640625 C-29.36505025 140.66098584 -29.36505025 140.66098584 -31.62890625 160.12890625 C-30.71319589 163.82751761 -29.31882599 166.47957002 -26.50390625 169.12890625 C-22.19945641 170.6261062 -18.96397169 170.56948184 -14.62890625 169.12890625 C-10.70466431 166.76360974 -7.17385298 164.02394608 -3.62890625 161.12890625 C-2.22898437 160.07123047 -2.22898437 160.07123047 -0.80078125 158.9921875 C-0.0840625 158.37730469 0.63265625 157.76242188 1.37109375 157.12890625 C1.37109375 156.46890625 1.37109375 155.80890625 1.37109375 155.12890625 C-3.15591791 157.2732802 -7.31915926 160.01154561 -11.55859375 162.66796875 C-14.89945861 164.25764236 -16.97710709 164.50153882 -20.62890625 164.12890625 C-22.16100341 162.59680909 -21.83505172 161.19700572 -21.87890625 159.06640625 C-21.61905598 145.2510335 -11.42483768 132.7953418 -3.01123047 122.54711914 C4.88215036 113.9262828 4.88215036 113.9262828 8.3515625 103.44921875 C7.55507917 100.9384442 7.55507917 100.9384442 5.09375 99.7265625 C-3.06061703 97.93657949 -13.04814211 105.9809246 -19.62890625 110.12890625 C-22.13816007 111.81959251 -24.60862288 113.55184383 -27.06640625 115.31640625 C-29.87703601 117.30441266 -32.74656534 119.18406117 -35.62890625 121.06640625 C-40.52254379 124.29936421 -45.07883823 127.7937917 -49.5703125 131.5625 C-51.62890625 133.12890625 -51.62890625 133.12890625 -54.62890625 134.12890625 C-54.62890625 134.78890625 -54.62890625 135.44890625 -54.62890625 136.12890625 C-55.61890625 136.12890625 -56.60890625 136.12890625 -57.62890625 136.12890625 C-56.63890625 133.15890625 -55.64890625 130.18890625 -54.62890625 127.12890625 C-53.96890625 127.12890625 -53.30890625 127.12890625 -52.62890625 127.12890625 C-52.20170288 126.30338257 -52.20170288 126.30338257 -51.76586914 125.46118164 C-48.68748027 119.69708992 -45.15255825 114.65277275 -41.06640625 109.56640625 C-39.82177288 107.99178884 -38.57830547 106.41624918 -37.3359375 104.83984375 C-36.71541504 104.05448242 -36.09489258 103.26912109 -35.45556641 102.45996094 C-28.53232392 93.62500781 -21.85929945 84.57228239 -15.31640625 75.453125 C-14.26008064 73.99823209 -13.1800293 72.55995472 -12.06640625 71.1484375 C-8.87317014 67.03896035 -7.93913554 64.19598472 -7.62890625 59.12890625 C-8.61890625 58.46890625 -9.60890625 57.80890625 -10.62890625 57.12890625 Z M52.37109375 97.12890625 C52.37109375 97.78890625 52.37109375 98.44890625 52.37109375 99.12890625 C51.38109375 99.12890625 50.39109375 99.12890625 49.37109375 99.12890625 C48.20550357 100.19165024 47.05316954 101.27298356 45.9765625 102.42578125 C43.14261488 105.43211011 40.12835414 108.26337619 37.1640625 111.140625 C35.14786379 112.93023455 35.14786379 112.93023455 35.37109375 115.12890625 C34.71109375 115.12890625 34.05109375 115.12890625 33.37109375 115.12890625 C30.9728907 117.76575372 30.9728907 117.76575372 30.37109375 121.12890625 C29.71109375 121.12890625 29.05109375 121.12890625 28.37109375 121.12890625 C27.06664862 122.593984 27.06664862 122.593984 25.8046875 124.5234375 C25.31935547 125.23177734 24.83402344 125.94011719 24.33398438 126.66992188 C23.83060547 127.41951172 23.32722656 128.16910156 22.80859375 128.94140625 C22.30134766 129.67939453 21.79410156 130.41738281 21.27148438 131.17773438 C18.37908041 135.42284226 18.37908041 135.42284226 16.37109375 140.12890625 C15.71109375 140.12890625 15.05109375 140.12890625 14.37109375 140.12890625 C13.03213743 141.79105893 11.69979233 143.45854232 10.37109375 145.12890625 C8.70442708 146.46223958 7.03776042 147.79557292 5.37109375 149.12890625 C3.9974103 150.76247576 2.6517186 152.42140645 1.37109375 154.12890625 C4.56834857 154.47303647 4.56834857 154.47303647 6.80859375 151.81640625 C7.65421875 150.92953125 8.49984375 150.04265625 9.37109375 149.12890625 C10.68285361 148.10077014 12.00808305 147.08806193 13.37109375 146.12890625 C12.87609375 147.05703125 12.87609375 147.05703125 12.37109375 148.00390625 C10.7162466 153.17530358 10.19397773 158.39890257 12.38671875 163.484375 C14.45345 166.90195167 16.00276923 168.88335657 19.37109375 171.12890625 C26.88700642 172.18852673 32.80259902 170.76185148 39.37109375 167.12890625 C39.37109375 166.46890625 39.37109375 165.80890625 39.37109375 165.12890625 C40.25087891 164.71898437 40.25087891 164.71898437 41.1484375 164.30078125 C49.78326124 159.7481501 55.48267096 151.27645998 61.22119141 143.65087891 C62.19443444 142.36272667 63.19226648 141.09320874 64.1953125 139.828125 C65.56076487 138.19918864 65.56076487 138.19918864 65.37109375 136.12890625 C66.03109375 136.12890625 66.69109375 136.12890625 67.37109375 136.12890625 C70.18958881 130.5799941 71.90374515 126.38756025 71.37109375 120.12890625 C72.07234375 120.02578125 72.77359375 119.92265625 73.49609375 119.81640625 C76.76247022 119.03531622 79.41827895 117.70831882 82.37109375 116.12890625 C82.37109375 115.79890625 82.37109375 115.46890625 82.37109375 115.12890625 C79.07109375 115.12890625 75.77109375 115.12890625 72.37109375 115.12890625 C72.86609375 113.64390625 72.86609375 113.64390625 73.37109375 112.12890625 C74.24619276 104.03785253 74.24619276 104.03785253 70.99609375 96.94140625 C64.4998872 92.4559303 59.07203469 93.84681273 52.37109375 97.12890625 Z " fill="#030303" transform="translate(343.62890625,22.87109375)"/>
<path d="M0 0 C2.4375 1.875 2.4375 1.875 4 4 C4 4.66 4 5.32 4 6 C6.31 6.66 8.62 7.32 11 8 C11.515625 6.865625 12.03125 5.73125 12.5625 4.5625 C14.36087834 1.42963596 14.73457658 1.08847447 18.375 -0.125 C22.63149673 0.02177575 24.64108606 0.34411456 28 3 C28.81166157 5.28625093 29.24198046 7.44271759 29.578125 9.84375 C29.91225962 12.28505609 29.91225962 12.28505609 32 15 C32.886875 14.690625 33.77375 14.38125 34.6875 14.0625 C42.23171413 11.64265773 42.23171413 11.64265773 45.6875 13.25 C48 15 48 15 50 18 C50.1875 21.625 50.1875 21.625 50 25 C49.505 25.495 49.505 25.495 49 26 C48.76924918 27.34747084 48.58846937 28.70377565 48.4375 30.0625 C48.293125 31.361875 48.14875 32.66125 48 34 C48.60328125 33.95359375 49.2065625 33.9071875 49.828125 33.859375 C56.30685921 33.566787 56.30685921 33.566787 59.5 35.5625 C61.50133412 38.81466794 61.93311096 41.18732499 62 45 C60.75 47.9375 60.75 47.9375 59 50 C58.01 50 57.02 50 56 50 C55.67 52.64 55.34 55.28 55 58 C56.175625 58.433125 56.175625 58.433125 57.375 58.875 C60 60 60 60 62 62 C62.99 61.34 63.98 60.68 65 60 C67.26171875 60.0234375 67.26171875 60.0234375 69.6875 60.375 C70.49574219 60.48585938 71.30398438 60.59671875 72.13671875 60.7109375 C73.05904297 60.85402344 73.05904297 60.85402344 74 61 C74.4640625 59.2984375 74.4640625 59.2984375 74.9375 57.5625 C76 54 76 54 77 53 C82.26495726 52.57540667 82.26495726 52.57540667 85 53 C86.875 55 86.875 55 88 57 C88.66 57 89.32 57 90 57 C90.391875 56.34 90.78375 55.68 91.1875 55 C93 53 93 53 96.6875 52.75 C97.780625 52.8325 98.87375 52.915 100 53 C101.98 56.96 101.98 56.96 104 61 C105.3303125 60.6596875 105.3303125 60.6596875 106.6875 60.3125 C110.5999824 59.94339789 111.90504205 60.70088838 115 63 C116 64 116 64 116.0625 66.5625 C116.041875 67.366875 116.02125 68.17125 116 69 C115.34 69 114.68 69 114 69 C114 70.65 114 72.3 114 74 C114.928125 73.95875 115.85625 73.9175 116.8125 73.875 C120 74 120 74 123 76 C123.33348476 79.00136283 123.55925866 81.10851375 123 84 C121.0625 85.8125 121.0625 85.8125 119 87 C118.67 87.99 118.34 88.98 118 90 C118.639375 90.144375 119.27875 90.28875 119.9375 90.4375 C122 91 122 91 123 92 C123.04092937 94.33297433 123.04241723 96.66705225 123 99 C122.36191406 99.25394531 121.72382813 99.50789063 121.06640625 99.76953125 C120.24011719 100.11371094 119.41382813 100.45789063 118.5625 100.8125 C117.32693359 101.31716797 117.32693359 101.31716797 116.06640625 101.83203125 C113.66627512 102.88403088 113.66627512 102.88403088 113 106 C113.66 106 114.32 106 115 106 C115.47627265 111.3580673 115.47627265 111.3580673 113.5625 113.9375 C109.64726537 115.56088997 106.09325725 114.72594092 102 114 C101.690625 115.134375 101.38125 116.26875 101.0625 117.4375 C100 121 100 121 99 122 C96.66702567 122.04092937 94.33294775 122.04241723 92 122 C91.34 120.35 90.68 118.7 90 117 C86.83884224 118.36983503 86.0072908 118.9890638 84 122 C77.875 122.4375 77.875 122.4375 75 121 C74.26924352 118.6859378 73.59861742 116.35171131 73 114 C72.38511719 114.01160156 71.77023437 114.02320313 71.13671875 114.03515625 C70.32847656 114.04417969 69.52023437 114.05320312 68.6875 114.0625 C67.88699219 114.07410156 67.08648437 114.08570313 66.26171875 114.09765625 C64 114 64 114 61 113 C61 113.66 61 114.32 61 115 C61.804375 115.12375 62.60875 115.2475 63.4375 115.375 C64.283125 115.58125 65.12875 115.7875 66 116 C67.42041821 118.84083641 67.31452272 120.85477278 67 124 C65 126.375 65 126.375 63 128 C64.98 128.99 64.98 128.99 67 130 C66.67 132.31 66.34 134.62 66 137 C64.02 137.33 62.04 137.66 60 138 C60.2784375 139.670625 60.2784375 139.670625 60.5625 141.375 C61 145 61 145 60 147 C57.03 147 54.06 147 51 147 C50.505 149.97 50.505 149.97 50 153 C47.69 153 45.38 153 43 153 C42.67 152.01 42.34 151.02 42 150 C40.68 150 39.36 150 38 150 C38 150.99 38 151.98 38 153 C35.69 153 33.38 153 31 153 C30.01 151.02 29.02 149.04 28 147 C26.88625 147.04125 25.7725 147.0825 24.625 147.125 C21 147 21 147 19 145 C19.03287583 142.27130593 19.56397771 139.7033382 20 137 C18.824375 136.814375 18.824375 136.814375 17.625 136.625 C15 136 15 136 13 134 C13.22743305 131.04337034 13.61235938 129.44966312 15.5625 127.1875 C16.036875 126.795625 16.51125 126.40375 17 126 C16.319375 125.443125 15.63875 124.88625 14.9375 124.3125 C13 122 13 122 13.125 119.375 C14 117 14 117 16 115 C18.625 114.875 18.625 114.875 21 115 C20.43968727 112.06361777 20.43968727 112.06361777 19 109 C18.01 108.505 17.02 108.01 16 107.5 C13 106 13 106 11.625 102.8125 C11.41875 101.884375 11.2125 100.95625 11 100 C5.39594492 101.18547319 3.4303402 102.54055775 0 107 C-4.13291264 108.63141289 -6.99403129 107.69140901 -11 106 C-13.28805777 103.71194223 -13.45582599 102.66724344 -14.0625 99.5625 C-14.58554517 96.93862879 -15.15093007 94.54720979 -16 92 C-16.845625 92.495 -17.69125 92.99 -18.5625 93.5 C-22.46172198 95.20147868 -24.79052413 95.53575147 -29 95 C-31.875 93.4375 -31.875 93.4375 -34 91 C-34.9375 87.375 -34.9375 87.375 -35 84 C-34.01 83.01 -34.01 83.01 -33 82 C-32.59952556 79.67724823 -32.2602896 77.34260643 -32 75 C-32.59167969 74.98582031 -33.18335938 74.97164063 -33.79296875 74.95703125 C-38.0571005 74.69965299 -40.48172976 74.35961608 -44.0625 71.875 C-46.54189938 68.19589125 -46.77773898 66.3553383 -46 62 C-43.625 59.1875 -43.625 59.1875 -41 57 C-38.64046906 54.64046906 -38.50858587 53.22104383 -38 50 C-38.94875 49.7525 -39.8975 49.505 -40.875 49.25 C-44 48 -44 48 -45.4375 46.3125 C-46.26871941 42.89526467 -45.84906972 40.39627888 -45 37 C-42.73946036 33.65440134 -40.67469438 32.79260364 -36.875 31.9375 C-32.78450476 31.41156058 -32.78450476 31.41156058 -31 28 C-31.515625 27.113125 -32.03125 26.22625 -32.5625 25.3125 C-34.12942982 21.70174866 -34.38668801 20.60538884 -33 17 C-31.4375 14.1875 -31.4375 14.1875 -29 12 C-23.90514897 11.43390544 -20.67328623 11.86364058 -16 14 C-15.01 14 -14.02 14 -13 14 C-12.98582031 13.32453125 -12.97164062 12.6490625 -12.95703125 11.953125 C-12.5694002 4.70337672 -12.5694002 4.70337672 -9.875 1.375 C-6.24499054 -0.36109148 -3.97894194 -0.57875519 0 0 Z M-15.1875 34.375 C-20.69918766 40.52808721 -22.56513329 45.70213596 -22.5 53.8125 C-22.49572998 54.61204102 -22.49145996 55.41158203 -22.48706055 56.23535156 C-22.3035699 62.59203802 -21.02250332 66.97748887 -17 72 C-16.319375 73.051875 -15.63875 74.10375 -14.9375 75.1875 C-10.07078777 80.54989588 -3.14111687 83.84043139 4.0234375 84.515625 C11.63945129 84.86802775 18.39650512 84.10884126 25 80 C25 79.34 25 78.68 25 78 C25.99 78 26.98 78 28 78 C29.38123963 76.03277992 30.71488126 74.03131672 32 72 C32.66 71.67 33.32 71.34 34 71 C38.32295833 63.56451167 39.17960996 55.04800023 37.5390625 46.63671875 C35.74938306 40.54128114 32.53116946 33.97015337 26.80859375 30.77734375 C26.21175781 30.52082031 25.61492187 30.26429688 25 30 C25 29.34 25 28.68 25 28 C11.02474553 20.52486389 -4.42826996 22.69298928 -15.1875 34.375 Z M61 67 C60.67 68.98 60.34 70.96 60 73 C60.99 72.67 61.98 72.34 63 72 C62.67 70.35 62.34 68.7 62 67 C61.67 67 61.34 67 61 67 Z M73.578125 74.26953125 C68.97190216 79.32041421 68.45640422 83.41203362 68.66015625 90.0625 C69.37517162 96.24286277 72.09845277 99.49392034 76.8125 103.375 C81.95392832 106.92277526 86.4037452 107.41743943 92.5 106.4375 C98.84084178 104.81441763 102.63282531 101.29332529 105.9375 95.75 C107.62298966 89.80121297 107.70000743 83.96373573 106 78 C105.34 78 104.68 78 104 78 C103.79375 77.443125 103.5875 76.88625 103.375 76.3125 C100.94985827 72.23385254 98.22587635 69.57205389 93.62890625 68.390625 C85.45592899 67.34567814 79.78417109 68.86099109 73.578125 74.26953125 Z M46 78 C46.37904208 81.29075996 46.37904208 81.29075996 48 84 C48.13568319 87.66344611 48.16461426 90.50615721 47 94 C45.2578125 94.80078125 45.2578125 94.80078125 43.125 95.3125 C42.42632812 95.49425781 41.72765625 95.67601562 41.0078125 95.86328125 C39 96 39 96 36 94 C32.41642759 93.74984127 32.41642759 93.74984127 29 94 C27.26394487 95.73605513 27.34388018 98.20549496 26.9375 100.5625 C26.76089844 101.57441406 26.58429688 102.58632813 26.40234375 103.62890625 C26.26957031 104.41136719 26.13679688 105.19382812 26 106 C27.32 106 28.64 106 30 106 C30.33 104.02 30.66 102.04 31 100 C33.875 99.8125 33.875 99.8125 37 100 C37.66 100.99 38.32 101.98 39 103 C40.32 103 41.64 103 43 103 C43 102.01 43 101.02 43 100 C45.31 100.33 47.62 100.66 50 101 C50.33 102.65 50.66 104.3 51 106 C54.49384279 107.16461426 57.33655389 107.13568319 61 107 C62.35618499 105.87465895 62.35618499 105.87465895 62.0625 102.9375 C62.041875 101.968125 62.02125 100.99875 62 100 C59.69 99.67 57.38 99.34 55 99 C54 92.25 54 92.25 54 90 C54.99 90 55.98 90 57 90 C57.66 88.35 58.32 86.7 59 85 C58.360625 84.79375 57.72125 84.5875 57.0625 84.375 C55 83 55 83 54.25 80 C54 77 54 77 54 75 C49.73173127 75 49.06117568 75.37613513 46 78 Z M28.640625 117.80078125 C26.67246583 121.27202088 26 123.58923867 26 127.625 C27.36327776 132.22606244 29.42942359 135.42942359 32.8125 138.8125 C37.07637847 141.12717688 40.90382832 141.17009561 45.625 140.4375 C50.53962303 138.34423463 52.39692984 135.44277357 55.3125 131 C56.52667308 127.46786014 56.69502766 124.50186411 55.1015625 121.05859375 C54.12248981 119.34000871 53.06619832 117.66593487 52 116 C51.34 116 50.68 116 50 116 C50 115.34 50 114.68 50 114 C42.43154877 110.21577439 33.91281265 110.81664761 28.640625 117.80078125 Z " fill="#101010" transform="translate(226,247)"/>
<path d="M0 0 C4.13082236 0.82616447 5.45511624 2.69791408 8.0234375 5.8984375 C9.125 7.625 9.125 7.625 9.125 9.625 C10.115 9.955 11.105 10.285 12.125 10.625 C12.52738111 15.71170459 11.47462446 18.43989373 8.8125 22.75 C8.19761719 23.76320312 7.58273437 24.77640625 6.94921875 25.8203125 C3.79551702 30.6690445 3.79551702 30.6690445 2.125 32.625 C1.465 32.625 0.805 32.625 0.125 32.625 C0.125 33.615 0.125 34.605 0.125 35.625 C-1.8125 37.75 -1.8125 37.75 -3.1953125 39.0390625 C-4.47531246 40.2476206 -5.71296333 41.5011974 -6.9296875 42.7734375 C-13.33263707 49.44225349 -19.2332131 55.30450586 -28.88671875 55.8046875 C-30.875 55.625 -30.875 55.625 -33.4375 54.3125 C-35.73503566 50.01710724 -35.72133359 46.38152598 -34.875 41.625 C-32.35139656 34.64461765 -28.27088386 28.48520917 -24.125 22.375 C-23.73642822 21.80160889 -23.34785645 21.22821777 -22.94750977 20.63745117 C-21.97799664 19.25983329 -20.93249493 17.93629372 -19.875 16.625 C-19.215 16.625 -18.555 16.625 -17.875 16.625 C-17.51535156 15.77615234 -17.51535156 15.77615234 -17.1484375 14.91015625 C-15.61139857 12.15197289 -13.75156882 10.2729272 -11.5 8.0625 C-10.34371094 6.91587891 -10.34371094 6.91587891 -9.1640625 5.74609375 C-3.8711293 0.84154985 -3.8711293 0.84154985 0 0 Z " fill="#0C0C0C" transform="translate(398.875,133.375)"/>
<path d="M0 0 C-0.1875 2.8125 -0.1875 2.8125 -1 6 C-6.59561168 10.27033523 -12.21048875 10.65300965 -19 10 C-25.82526361 8.47360849 -31.80749902 6.87576802 -37 2 C-37 1.34 -37 0.68 -37 0 C-9.60224602 -5.45835331 -9.60224602 -5.45835331 0 0 Z " fill="#202020" transform="translate(176,109)"/>
<path d="M0 0 C0.66 0 1.32 0 2 0 C1.34 4.62 0.68 9.24 0 14 C-0.33 14 -0.66 14 -1 14 C-1.12375 12.865625 -1.2475 11.73125 -1.375 10.5625 C-1.58125 9.386875 -1.7875 8.21125 -2 7 C-2.66 6.67 -3.32 6.34 -4 6 C-2.84826645 3.53199953 -1.95216435 1.95216435 0 0 Z " fill="#3E3E3E" transform="translate(355,169)"/>
<path d="M0 0 C0.66 0.33 1.32 0.66 2 1 C-0.64 3.64 -3.28 6.28 -6 9 C-6.99 8.67 -7.98 8.34 -9 8 C-8.01 7.67 -7.02 7.34 -6 7 C-5.67 6.01 -5.34 5.02 -5 4 C-3.37667033 2.61423077 -1.71275535 1.27358732 0 0 Z " fill="#5B5B5B" transform="translate(147,146)"/>
</svg>
