<?xml version="1.0" encoding="UTF-8"?>
<svg version="1.1" xmlns="http://www.w3.org/2000/svg" width="512" height="512">
<path d="M0 0 C3.66944815 3.00099539 6.96937735 6.29600157 10.25927734 9.70410156 C10.99662109 10.41050781 11.73396484 11.11691406 12.49365234 11.84472656 C25.43648307 24.98822133 30.58144102 43.74263241 30.75927734 61.70410156 C30.56206263 81.62278718 24.23758205 99.91986952 9.96240234 114.09472656 C9.07037109 114.95582031 8.17833984 115.81691406 7.25927734 116.70410156 C6.55287109 117.44144531 5.84646484 118.17878906 5.11865234 118.93847656 C-8.02484243 131.88130729 -26.77925351 137.02626523 -44.74072266 137.20410156 C-64.65940827 137.00688685 -82.95649061 130.68240626 -97.13134766 116.40722656 C-97.99244141 115.51519531 -98.85353516 114.62316406 -99.74072266 113.70410156 C-100.47806641 112.99769531 -101.21541016 112.29128906 -101.97509766 111.56347656 C-114.91792839 98.41998179 -120.06288633 79.66557071 -120.24072266 61.70410156 C-120.04350795 41.78541595 -113.71902736 23.48833361 -99.44384766 9.31347656 C-98.55181641 8.45238281 -97.65978516 7.59128906 -96.74072266 6.70410156 C-96.03431641 5.96675781 -95.32791016 5.22941406 -94.60009766 4.46972656 C-70.40433808 -19.35663211 -26.63378874 -19.82779112 0 0 Z M-75.74072266 29.70410156 C-76.37751953 30.29964844 -77.01431641 30.89519531 -77.67041016 31.50878906 C-86.15777968 40.28757041 -89.0770134 51.64631753 -89.12573242 63.51831055 C-88.91394838 75.031349 -84.57538509 84.3449429 -76.74072266 92.70410156 C-75.84740234 93.65929687 -75.84740234 93.65929687 -74.93603516 94.63378906 C-66.1572538 103.12115858 -54.79850669 106.04039231 -42.92651367 106.08911133 C-31.41347522 105.87732729 -22.09988132 101.538764 -13.74072266 93.70410156 C-12.78552734 92.81078125 -12.78552734 92.81078125 -11.81103516 91.89941406 C-3.32366563 83.12063271 -0.40443191 71.76188559 -0.35571289 59.88989258 C-0.56749693 48.37685412 -4.90606022 39.06326023 -12.74072266 30.70410156 C-13.63404297 29.74890625 -13.63404297 29.74890625 -14.54541016 28.77441406 C-23.32419151 20.28704454 -34.68293863 17.36781082 -46.55493164 17.3190918 C-58.0679701 17.53087584 -67.38156399 21.86943913 -75.74072266 29.70410156 Z " fill="#000000" transform="translate(481.74072265625,194.2958984375)"/>
<path d="M0 0 C3.66944815 3.00099539 6.96937735 6.29600157 10.25927734 9.70410156 C10.99662109 10.41050781 11.73396484 11.11691406 12.49365234 11.84472656 C25.43648307 24.98822133 30.58144102 43.74263241 30.75927734 61.70410156 C30.56206263 81.62278718 24.23758205 99.91986952 9.96240234 114.09472656 C9.07037109 114.95582031 8.17833984 115.81691406 7.25927734 116.70410156 C6.55287109 117.44144531 5.84646484 118.17878906 5.11865234 118.93847656 C-8.02484243 131.88130729 -26.77925351 137.02626523 -44.74072266 137.20410156 C-64.65940827 137.00688685 -82.95649061 130.68240626 -97.13134766 116.40722656 C-97.99244141 115.51519531 -98.85353516 114.62316406 -99.74072266 113.70410156 C-100.47806641 112.99769531 -101.21541016 112.29128906 -101.97509766 111.56347656 C-114.91792839 98.41998179 -120.06288633 79.66557071 -120.24072266 61.70410156 C-120.04350795 41.78541595 -113.71902736 23.48833361 -99.44384766 9.31347656 C-98.55181641 8.45238281 -97.65978516 7.59128906 -96.74072266 6.70410156 C-96.03431641 5.96675781 -95.32791016 5.22941406 -94.60009766 4.46972656 C-70.40433808 -19.35663211 -26.63378874 -19.82779112 0 0 Z M-75.74072266 29.70410156 C-76.37751953 30.29964844 -77.01431641 30.89519531 -77.67041016 31.50878906 C-86.15777968 40.28757041 -89.0770134 51.64631753 -89.12573242 63.51831055 C-88.91394838 75.031349 -84.57538509 84.3449429 -76.74072266 92.70410156 C-75.84740234 93.65929687 -75.84740234 93.65929687 -74.93603516 94.63378906 C-66.1572538 103.12115858 -54.79850669 106.04039231 -42.92651367 106.08911133 C-31.41347522 105.87732729 -22.09988132 101.538764 -13.74072266 93.70410156 C-12.78552734 92.81078125 -12.78552734 92.81078125 -11.81103516 91.89941406 C-3.32366563 83.12063271 -0.40443191 71.76188559 -0.35571289 59.88989258 C-0.56749693 48.37685412 -4.90606022 39.06326023 -12.74072266 30.70410156 C-13.63404297 29.74890625 -13.63404297 29.74890625 -14.54541016 28.77441406 C-23.32419151 20.28704454 -34.68293863 17.36781082 -46.55493164 17.3190918 C-58.0679701 17.53087584 -67.38156399 21.86943913 -75.74072266 29.70410156 Z " fill="#000000" transform="translate(300.74072265625,194.2958984375)"/>
<path d="M0 0 C3.66944815 3.00099539 6.96937735 6.29600157 10.25927734 9.70410156 C10.99662109 10.41050781 11.73396484 11.11691406 12.49365234 11.84472656 C25.43648307 24.98822133 30.58144102 43.74263241 30.75927734 61.70410156 C30.56206263 81.62278718 24.23758205 99.91986952 9.96240234 114.09472656 C9.07037109 114.95582031 8.17833984 115.81691406 7.25927734 116.70410156 C6.55287109 117.44144531 5.84646484 118.17878906 5.11865234 118.93847656 C-8.02484243 131.88130729 -26.77925351 137.02626523 -44.74072266 137.20410156 C-64.65940827 137.00688685 -82.95649061 130.68240626 -97.13134766 116.40722656 C-97.99244141 115.51519531 -98.85353516 114.62316406 -99.74072266 113.70410156 C-100.47806641 112.99769531 -101.21541016 112.29128906 -101.97509766 111.56347656 C-114.91792839 98.41998179 -120.06288633 79.66557071 -120.24072266 61.70410156 C-120.04350795 41.78541595 -113.71902736 23.48833361 -99.44384766 9.31347656 C-98.55181641 8.45238281 -97.65978516 7.59128906 -96.74072266 6.70410156 C-96.03431641 5.96675781 -95.32791016 5.22941406 -94.60009766 4.46972656 C-70.40433808 -19.35663211 -26.63378874 -19.82779112 0 0 Z M-75.74072266 29.70410156 C-76.37751953 30.29964844 -77.01431641 30.89519531 -77.67041016 31.50878906 C-86.15777968 40.28757041 -89.0770134 51.64631753 -89.12573242 63.51831055 C-88.91394838 75.031349 -84.57538509 84.3449429 -76.74072266 92.70410156 C-75.84740234 93.65929687 -75.84740234 93.65929687 -74.93603516 94.63378906 C-66.1572538 103.12115858 -54.79850669 106.04039231 -42.92651367 106.08911133 C-31.41347522 105.87732729 -22.09988132 101.538764 -13.74072266 93.70410156 C-12.78552734 92.81078125 -12.78552734 92.81078125 -11.81103516 91.89941406 C-3.32366563 83.12063271 -0.40443191 71.76188559 -0.35571289 59.88989258 C-0.56749693 48.37685412 -4.90606022 39.06326023 -12.74072266 30.70410156 C-13.63404297 29.74890625 -13.63404297 29.74890625 -14.54541016 28.77441406 C-23.32419151 20.28704454 -34.68293863 17.36781082 -46.55493164 17.3190918 C-58.0679701 17.53087584 -67.38156399 21.86943913 -75.74072266 29.70410156 Z " fill="#000000" transform="translate(119.74072265625,194.2958984375)"/>
</svg>
