<?xml version="1.0" encoding="UTF-8"?>
<svg version="1.1" xmlns="http://www.w3.org/2000/svg" width="512" height="512">
<path d="M0 0 C8.47839953 5.74835488 14.15787045 12.35692951 16.953125 22.32421875 C17.94509093 32.05932627 17.18042804 40.55425063 11.3046875 48.57421875 C5.12660027 55.9123835 -0.99005175 60.79670949 -10.76953125 61.6484375 C-20.97151303 62.06119222 -29.06377504 60.65380124 -37.296875 54.32421875 C-43.2816732 48.72788616 -47.39823608 40.2895701 -48.28515625 32.1328125 C-48.57829329 22.76785557 -45.73752856 14.40959416 -39.81640625 7.109375 C-29.87142696 -2.92341868 -12.86719924 -6.99838127 0 0 Z " fill="#000000" transform="translate(378.046875,226.67578125)"/>
<path d="M0 0 C8.49861163 5.15714673 12.98157748 11.57358833 16.48828125 20.7578125 C18.24813676 29.8770638 17.55961941 38.64390107 12.734375 46.73828125 C7.48424204 54.01050718 0.87961453 58.9802308 -7.82421875 61.3203125 C-19.22090578 62.3359758 -27.97990731 61.42996824 -37.07421875 54.0703125 C-43.23704643 48.33716404 -47.22337734 41.54447043 -48.1953125 33.09375 C-48.40345277 22.44186539 -46.44366869 13.76531618 -39.01171875 5.8203125 C-28.66676934 -3.60377967 -12.74479585 -6.12606994 0 0 Z " fill="#000000" transform="translate(164.82421875,226.6796875)"/>
<path d="M0 0 C8.34296853 4.97488123 13.53708251 11.86384564 16.109375 21.2578125 C16.89814221 30.10851435 17.06941889 38.555881 12.109375 46.2578125 C11.67367187 46.96421875 11.23796875 47.670625 10.7890625 48.3984375 C6.10935787 55.30291974 0.10880944 59.05772679 -7.890625 61.2578125 C-16.74132685 62.04657971 -25.1886935 62.21785639 -32.890625 57.2578125 C-33.59703125 56.82210937 -34.3034375 56.38640625 -35.03125 55.9375 C-41.93709584 51.25687115 -45.68778524 45.25759899 -47.890625 37.2578125 C-48.88914012 26.15803978 -48.24009702 16.5233259 -41.140625 7.4453125 C-30.84272373 -3.5807232 -13.59449082 -6.52353083 0 0 Z " fill="#000000" transform="translate(271.890625,226.7421875)"/>
</svg>
