<?xml version="1.0" encoding="UTF-8"?>
<svg version="1.1" xmlns="http://www.w3.org/2000/svg" width="512" height="512">
<path d="M0 0 C1.50046875 1.19302734 1.50046875 1.19302734 3.03125 2.41015625 C17.24854663 13.96240321 30.35862034 27.06679318 41 42 C41.47743652 42.66547852 41.95487305 43.33095703 42.44677734 44.01660156 C55.20745797 61.99020892 64.90351886 81.14204275 72 102 C72.24975586 102.73138184 72.49951172 103.46276367 72.75683594 104.21630859 C90.77619921 158.16193358 84.30610625 217.89259587 59.44311523 268.48022461 C55.4509379 276.36501266 51.17517585 283.83035565 46 291 C45.3198584 291.95543701 45.3198584 291.95543701 44.62597656 292.93017578 C36.58079873 304.17031568 27.77452096 314.22547904 18 324 C17.31421875 324.7321875 16.6284375 325.464375 15.921875 326.21875 C-16.4295057 360.19933692 -67.56330214 382.9134727 -114.26956177 385.10656738 C-116.62282292 385.16302519 -118.974225 385.19028105 -121.328125 385.203125 C-122.1912027 385.21013931 -123.0542804 385.21715363 -123.94351196 385.22438049 C-126.71239497 385.24178654 -129.4810643 385.2482323 -132.25 385.25 C-133.19474182 385.25067474 -134.13948364 385.25134949 -135.112854 385.25204468 C-148.62330629 385.23668373 -161.76199133 384.95298344 -175 382 C-175.80872559 381.82839355 -176.61745117 381.65678711 -177.45068359 381.47998047 C-205.8895485 375.3377126 -233.30752431 363.99278764 -257 347 C-257.58668457 346.58008789 -258.17336914 346.16017578 -258.77783203 345.72753906 C-266.07293177 340.44039747 -272.79389088 334.61729513 -279.34375 328.4453125 C-281.94383774 325.99253967 -281.94383774 325.99253967 -284.6484375 323.89453125 C-286.73063309 322.21701487 -288.39902953 320.59119304 -290.125 318.5625 C-291.01445312 317.51835938 -291.01445312 317.51835938 -291.921875 316.453125 C-292.60765625 315.64359375 -293.2934375 314.8340625 -294 314 C-294.85078125 313.02546875 -295.7015625 312.0509375 -296.578125 311.046875 C-302.94547248 303.71699533 -308.70517024 296.15612915 -314 288 C-314.54454834 287.16227051 -314.54454834 287.16227051 -315.10009766 286.30761719 C-346.09114239 238.10540116 -355.8975235 178.86542066 -344 123 C-337.7166784 95.79764099 -326.66690907 68.52816 -310 46 C-309.61634277 45.47792969 -309.23268555 44.95585937 -308.83740234 44.41796875 C-303.90796363 37.74378617 -298.71506986 31.37660206 -293.0859375 25.2734375 C-291.1477745 23.1610576 -289.28976729 21.00001928 -287.4375 18.8125 C-283.9339461 14.80501027 -280.07889975 11.40839568 -276 8 C-274.65421875 6.83984375 -274.65421875 6.83984375 -273.28125 5.65625 C-266.17979228 -0.39867711 -258.83541269 -5.91136851 -251 -11 C-250.44006348 -11.36448242 -249.88012695 -11.72896484 -249.30322266 -12.10449219 C-173.46368996 -60.85694073 -70.58945367 -56.26283068 0 0 Z M-269 150 C-274.55595669 158.09751135 -277.3151304 166.61135829 -275.5703125 176.4140625 C-273.49830545 184.67651036 -269.106222 191.2407511 -261.9375 195.9375 C-254.16152642 200.52417363 -245.18467533 201.57445241 -236.4375 199.34765625 C-228.77533826 196.24820541 -222.08967532 190.55061962 -217.97265625 183.36328125 C-215.12201214 176.43701744 -214.01561648 168.37957848 -216.1171875 161.1171875 C-219.67126563 152.59369039 -226.17285506 144.91649718 -234.6875 141.0625 C-246.89612301 137.2248189 -260.54203989 140.24745416 -269 150 Z M-157 151 C-162.52417009 159.13509625 -163.84545663 166.21685898 -163 176 C-161.06674655 184.12898137 -156.62052011 190.86241709 -149.6875 195.5703125 C-141.62756648 200.21007686 -133.47581048 201.54009246 -124.2734375 199.3515625 C-115.24688734 196.08188334 -109.33325167 190.5546464 -104.91015625 182.11328125 C-101.76827368 174.81818053 -101.87569617 166.16741569 -104.5625 158.75 C-108.47455892 150.22827725 -114.41788269 144.69617991 -123 141 C-135.62934618 136.98741751 -148.43326207 141.25295595 -157 151 Z M-44 151 C-49.28421639 157.5717412 -51.3713099 164.53736288 -50.9375 172.9375 C-49.72720844 181.89643981 -45.13014853 189.49499826 -38 195 C-30.13737382 199.74943165 -23.15316966 200.75060161 -14 200 C-5.43757737 197.85356163 0.53410136 193.60695457 5.25 186.125 C9.92266089 177.85610272 11.24446894 170.26189466 8.9375 161.0625 C6.30462351 153.06544525 1.29707452 147.2238558 -5.91015625 142.97265625 C-20.12698561 136.35585156 -33.57197804 139.84338262 -44 151 Z " fill="#000000" transform="translate(389,86)"/>
</svg>
