<?xml version="1.0" standalone="no"?>
<!DOCTYPE svg PUBLIC "-//W3C//DTD SVG 20010904//EN"
 "http://www.w3.org/TR/2001/REC-SVG-20010904/DTD/svg10.dtd">
<svg version="1.0" xmlns="http://www.w3.org/2000/svg"
 width="512.000000pt" height="512.000000pt" viewBox="0 0 512.000000 512.000000"
 preserveAspectRatio="xMidYMid meet">

<g transform="translate(0.000000,512.000000) scale(0.100000,-0.100000)"
fill="#000000" stroke="none">
<path d="M2380 5114 c-19 -2 -78 -9 -130 -14 -302 -33 -660 -148 -925 -297
-728 -410 -1197 -1104 -1307 -1933 -16 -123 -16 -497 0 -620 77 -582 319
-1078 725 -1489 410 -415 918 -665 1507 -743 123 -16 497 -16 620 0 589 78
1097 329 1507 743 406 411 648 908 725 1489 16 123 16 497 0 620 -77 581 -319
1078 -725 1489 -408 412 -920 666 -1497 741 -88 12 -438 21 -500 14z m401
-364 c677 -69 1291 -452 1650 -1031 538 -865 406 -1992 -316 -2714 -416 -416
-968 -645 -1555 -645 -761 0 -1470 394 -1871 1041 -538 865 -406 1992 316
2714 355 355 827 583 1316 634 121 12 340 13 460 1z"/>
<path d="M2485 3461 c-48 -22 -69 -44 -90 -94 -12 -30 -15 -89 -15 -332 l0
-295 -298 0 c-289 0 -299 -1 -342 -22 -132 -67 -132 -249 0 -315 43 -22 53
-23 342 -23 l298 0 0 -298 c0 -289 1 -299 23 -342 66 -132 248 -132 315 0 21
43 22 53 22 342 l0 298 298 0 c289 0 299 1 342 23 132 66 132 248 0 315 -43
21 -53 22 -342 22 l-298 0 0 298 c0 267 -2 301 -19 337 -22 48 -44 69 -94 90
-48 20 -93 19 -142 -4z"/>
</g>
</svg>
