<?xml version="1.0" encoding="UTF-8"?>
<svg version="1.1" xmlns="http://www.w3.org/2000/svg" width="512" height="512">
<path d="M0 0 C0.97582031 -0.04253906 1.95164063 -0.08507812 2.95703125 -0.12890625 C12.72774485 1.96228638 20.73825287 12.82222136 27.55078125 19.66015625 C28.8322433 20.94026888 30.11400193 22.22008467 31.39604187 23.49961853 C34.06945284 26.17009449 36.73924714 28.84411988 39.40649414 31.52075195 C42.8203916 34.9460777 46.24323747 38.36229862 49.66882038 41.77593327 C52.31215196 44.41203196 54.95069449 47.05288269 57.58782005 49.69518852 C58.84821104 50.95691025 60.11007996 52.21715745 61.3734684 53.47587776 C63.1370901 55.23440696 64.89415194 56.99924328 66.6496582 58.76586914 C67.16864685 59.28080933 67.6876355 59.79574951 68.22235107 60.32629395 C72.84723211 65.00544796 75.61864819 68.69357116 75.75 75.375 C75.79253906 76.35082031 75.83507812 77.32664062 75.87890625 78.33203125 C73.78771362 88.10274485 62.92777864 96.11325287 56.08984375 102.92578125 C54.80973112 104.2072433 53.52991533 105.48900193 52.25038147 106.77104187 C49.57990551 109.44445284 46.90588012 112.11424714 44.22924805 114.78149414 C40.8039223 118.1953916 37.38770138 121.61823747 33.97406673 125.04382038 C31.33796804 127.68715196 28.69711731 130.32569449 26.05481148 132.96282005 C24.79308975 134.22321104 23.53284255 135.48507996 22.27412224 136.7484684 C20.51559304 138.5120901 18.75075672 140.26915194 16.98413086 142.0246582 C16.46919067 142.54364685 15.95425049 143.0626355 15.42370605 143.59735107 C10.65900208 148.30678979 7.05008417 150.99124828 0.25 151 C-4.8917385 150.86103409 -7.96726391 150.2105445 -11.8125 146.5625 C-14.4115635 142.89618821 -15.28678036 140.23743905 -15.375 135.75 C-15.43880859 134.28626953 -15.43880859 134.28626953 -15.50390625 132.79296875 C-13.89287188 125.26570648 -6.99300986 119.45971844 -1.6640625 114.21875 C-1.00667084 113.56418823 -0.34927917 112.90962646 0.32803345 112.23522949 C2.40148671 110.17285267 4.4818284 108.11759155 6.5625 106.0625 C7.98093289 104.65411313 9.39890598 103.24526302 10.81640625 101.8359375 C14.26815124 98.40608627 17.72608665 94.98259252 21.1875 91.5625 C20.43543211 91.56103344 19.68336422 91.55956688 18.90850639 91.55805588 C0.60526134 91.52099704 -17.69779271 91.46199461 -36.00088692 91.37859726 C-44.85215685 91.33879542 -53.70333774 91.30640876 -62.5546875 91.29150391 C-70.26993526 91.2784933 -77.98498716 91.25154384 -85.70012462 91.20788693 C-89.7849139 91.18525869 -93.86946149 91.16959013 -97.954319 91.17061615 C-101.80071752 91.17136197 -105.64658151 91.15344319 -109.49284172 91.12133217 C-110.90289688 91.11282743 -112.31301195 91.1110872 -113.72308159 91.11669731 C-126.96257834 91.16234768 -126.96257834 91.16234768 -131.8125 86.5625 C-135.86880398 81.33990143 -135.58647544 75.90909858 -134.8125 69.5625 C-132.62809289 64.95097388 -130.32150728 62.81972705 -125.8125 60.5625 C-122.90150738 60.17773914 -122.90150738 60.17773914 -119.63053894 60.16377258 C-118.38678497 60.15123444 -117.14303101 60.13869629 -115.86158752 60.1257782 C-114.49130223 60.12695214 -113.12101715 60.12841125 -111.75073242 60.13012695 C-110.30172897 60.12110679 -108.85273316 60.11077895 -107.40374756 60.09924316 C-103.47646275 60.07167662 -99.54932275 60.06238915 -95.62195373 60.05638909 C-91.51527025 60.04700451 -87.4086949 60.02080105 -83.30207825 59.99638367 C-75.52846139 59.95271729 -67.75486551 59.92417119 -59.98116332 59.90106028 C-51.12988393 59.87400935 -42.2787133 59.83009778 -33.42751157 59.78477156 C-15.22256513 59.69192331 2.98241007 59.6202434 21.1875 59.5625 C20.78073532 59.16017654 20.37397064 58.75785309 19.95487976 58.34333801 C15.71489765 54.14766918 11.48202464 49.94492443 7.25317383 45.73803711 C5.67490208 44.16981082 4.09483833 42.60338583 2.51293945 41.03881836 C0.23693728 38.78712786 -2.03250089 36.52899702 -4.30078125 34.26953125 C-5.36030754 33.22548882 -5.36030754 33.22548882 -6.4412384 32.16035461 C-11.56648158 27.03628369 -15.24025154 23.19955667 -15.25 15.625 C-15.11103409 10.4832615 -14.4605445 7.40773609 -10.8125 3.5625 C-7.14618821 0.9634365 -4.48743905 0.08821964 0 0 Z " fill="#000000" transform="translate(134.8125,180.4375)"/>
<path d="M0 0 C1.10004126 -0.00843994 2.20008252 -0.01687988 3.33345836 -0.02557558 C4.5365592 -0.01956553 5.73966004 -0.01355549 6.97921848 -0.00736332 C8.26149265 -0.01274886 9.54376682 -0.01813439 10.86489779 -0.02368313 C14.42218438 -0.03815421 17.97923961 -0.03388793 21.53653896 -0.02651632 C25.37370638 -0.02179104 29.21082329 -0.03428881 33.04797459 -0.04453373 C40.56448038 -0.06173959 48.08090264 -0.06255806 55.59742301 -0.05732083 C61.70614783 -0.05328126 67.81484795 -0.05472014 73.92357159 -0.06006908 C75.22715205 -0.06119172 75.22715205 -0.06119172 76.55706747 -0.06233703 C78.32248342 -0.06386849 80.08789936 -0.06540684 81.8533153 -0.066952 C98.41316797 -0.08068347 114.97297341 -0.07523478 131.532825 -0.06376678 C146.68603872 -0.05383344 161.83913035 -0.06677566 176.99232524 -0.09070098 C192.54827593 -0.11507733 208.10416973 -0.12470347 223.66013914 -0.11804825 C232.39499306 -0.11455281 241.12975306 -0.11680952 249.86459255 -0.13429928 C257.30029563 -0.14900297 264.73583865 -0.14968078 272.17153852 -0.13222837 C275.9657411 -0.12370083 279.75965756 -0.12161125 283.55384541 -0.13687992 C287.66584037 -0.15322276 291.77714157 -0.13861481 295.88913059 -0.12088871 C297.69043577 -0.13529622 297.69043577 -0.13529622 299.52813095 -0.14999479 C305.80582887 -0.09411921 309.76778615 0.07738303 314.49766636 4.38031673 C318.55397034 9.60291531 318.2716418 15.03371816 317.49766636 21.38031673 C315.30979449 25.99915734 312.99580967 28.09501193 308.49766636 30.38031673 C305.87020069 30.75751489 305.87020069 30.75751489 302.99533272 30.76063347 C301.89529146 30.76907341 300.7952502 30.77751335 299.66187435 30.78620905 C298.45877351 30.780199 297.25567268 30.77418896 296.01611423 30.76799679 C294.73384006 30.77338233 293.45156589 30.77876786 292.13043493 30.7843166 C288.57314834 30.79878768 285.01609311 30.7945214 281.45879376 30.78714979 C277.62162634 30.7824245 273.78450943 30.79492228 269.94735813 30.8051672 C262.43085234 30.82237306 254.91443008 30.82319152 247.39790971 30.81795429 C241.28918488 30.81391472 235.18048477 30.81535361 229.07176113 30.82070255 C228.20270749 30.82145097 227.33365385 30.8221994 226.43826525 30.8229705 C224.6728493 30.82450196 222.90743335 30.8260403 221.14201742 30.82758547 C204.58216475 30.84131694 188.02235931 30.83586824 171.46250772 30.82440025 C156.309294 30.81446691 141.15620237 30.82740913 126.00300748 30.85133445 C110.44705679 30.8757108 94.89116299 30.88533694 79.33519357 30.87868172 C70.60033966 30.87518627 61.86557966 30.87744299 53.13074017 30.89493275 C45.69503709 30.90963644 38.25949407 30.91031424 30.82379419 30.89286184 C27.02959161 30.8843343 23.23567516 30.88224472 19.44148731 30.89751339 C15.32949235 30.91385623 11.21819115 30.89924828 7.10620213 30.88152218 C5.90533201 30.89112719 4.70446189 30.90073219 3.46720177 30.91062826 C-2.81049615 30.85475268 -6.77245343 30.68325044 -11.50233364 26.38031673 C-15.55863762 21.15771816 -15.27630908 15.72691531 -14.50233364 9.38031673 C-11.44286312 2.92143452 -7.12326299 0.00772711 0 0 Z " fill="#000000" transform="translate(194.50233364105225,375.61968326568604)"/>
<path d="M0 0 C1.10004126 -0.00843994 2.20008252 -0.01687988 3.33345836 -0.02557558 C4.5365592 -0.01956553 5.73966004 -0.01355549 6.97921848 -0.00736332 C8.26149265 -0.01274886 9.54376682 -0.01813439 10.86489779 -0.02368313 C14.42218438 -0.03815421 17.97923961 -0.03388793 21.53653896 -0.02651632 C25.37370638 -0.02179104 29.21082329 -0.03428881 33.04797459 -0.04453373 C40.56448038 -0.06173959 48.08090264 -0.06255806 55.59742301 -0.05732083 C61.70614783 -0.05328126 67.81484795 -0.05472014 73.92357159 -0.06006908 C75.22715205 -0.06119172 75.22715205 -0.06119172 76.55706747 -0.06233703 C78.32248342 -0.06386849 80.08789936 -0.06540684 81.8533153 -0.066952 C98.41316797 -0.08068347 114.97297341 -0.07523478 131.532825 -0.06376678 C146.68603872 -0.05383344 161.83913035 -0.06677566 176.99232524 -0.09070098 C192.54827593 -0.11507733 208.10416973 -0.12470347 223.66013914 -0.11804825 C232.39499306 -0.11455281 241.12975306 -0.11680952 249.86459255 -0.13429928 C257.30029563 -0.14900297 264.73583865 -0.14968078 272.17153852 -0.13222837 C275.9657411 -0.12370083 279.75965756 -0.12161125 283.55384541 -0.13687992 C287.66584037 -0.15322276 291.77714157 -0.13861481 295.88913059 -0.12088871 C297.69043577 -0.13529622 297.69043577 -0.13529622 299.52813095 -0.14999479 C305.80582887 -0.09411921 309.76778615 0.07738303 314.49766636 4.38031673 C318.55397034 9.60291531 318.2716418 15.03371816 317.49766636 21.38031673 C315.30979449 25.99915734 312.99580967 28.09501193 308.49766636 30.38031673 C305.87020069 30.75751489 305.87020069 30.75751489 302.99533272 30.76063347 C301.89529146 30.76907341 300.7952502 30.77751335 299.66187435 30.78620905 C298.45877351 30.780199 297.25567268 30.77418896 296.01611423 30.76799679 C294.73384006 30.77338233 293.45156589 30.77876786 292.13043493 30.7843166 C288.57314834 30.79878768 285.01609311 30.7945214 281.45879376 30.78714979 C277.62162634 30.7824245 273.78450943 30.79492228 269.94735813 30.8051672 C262.43085234 30.82237306 254.91443008 30.82319152 247.39790971 30.81795429 C241.28918488 30.81391472 235.18048477 30.81535361 229.07176113 30.82070255 C228.20270749 30.82145097 227.33365385 30.8221994 226.43826525 30.8229705 C224.6728493 30.82450196 222.90743335 30.8260403 221.14201742 30.82758547 C204.58216475 30.84131694 188.02235931 30.83586824 171.46250772 30.82440025 C156.309294 30.81446691 141.15620237 30.82740913 126.00300748 30.85133445 C110.44705679 30.8757108 94.89116299 30.88533694 79.33519357 30.87868172 C70.60033966 30.87518627 61.86557966 30.87744299 53.13074017 30.89493275 C45.69503709 30.90963644 38.25949407 30.91031424 30.82379419 30.89286184 C27.02959161 30.8843343 23.23567516 30.88224472 19.44148731 30.89751339 C15.32949235 30.91385623 11.21819115 30.89924828 7.10620213 30.88152218 C5.90533201 30.89112719 4.70446189 30.90073219 3.46720177 30.91062826 C-2.81049615 30.85475268 -6.77245343 30.68325044 -11.50233364 26.38031673 C-15.55863762 21.15771816 -15.27630908 15.72691531 -14.50233364 9.38031673 C-11.44286312 2.92143452 -7.12326299 0.00772711 0 0 Z " fill="#000000" transform="translate(194.50233364105225,105.61968326568604)"/>
<path d="M0 0 C1.03726103 -0.00538554 2.07452206 -0.01077108 3.14321524 -0.01631981 C6.62396309 -0.03064392 10.10433303 -0.02348452 13.58509827 -0.01637268 C16.07853502 -0.02207389 18.57196916 -0.02903718 21.06539917 -0.03717041 C27.13812126 -0.05327674 33.21069449 -0.05519691 39.28342336 -0.04995751 C44.21938116 -0.04591597 49.15530839 -0.04735916 54.09126472 -0.05270576 C54.79379669 -0.05345419 55.49632866 -0.05420261 56.22014948 -0.05497371 C57.64734543 -0.05650519 59.07454137 -0.05804354 60.5017373 -0.05958868 C73.88548639 -0.07331641 87.26917703 -0.06787411 100.65292478 -0.05640347 C112.89621277 -0.04647069 125.13934963 -0.05941198 137.38261431 -0.08333766 C149.95533528 -0.10772197 162.52798585 -0.11733819 175.10073 -0.11068493 C182.15885186 -0.10719123 189.21685749 -0.10943468 196.27496147 -0.12693596 C202.91109683 -0.14318686 209.5469902 -0.13848669 216.18313408 -0.11963081 C218.6204167 -0.11593565 221.05772059 -0.11908022 223.49498367 -0.1295166 C226.81885051 -0.14266413 230.14175133 -0.13123332 233.46557617 -0.11352539 C234.43298939 -0.1231304 235.40040261 -0.1327354 236.39713138 -0.14263147 C242.1774371 -0.07915036 245.36680654 0.590313 249.79627991 4.38768005 C253.85258389 9.61027863 253.57025534 15.04108148 252.79627991 21.38768005 C250.62546712 25.97050704 248.37264402 28.29017625 243.79627991 30.38768005 C240.39533429 30.8301075 237.01818442 30.79659281 233.59255981 30.77536011 C232.55529879 30.78074565 231.51803776 30.78613118 230.44934458 30.79167992 C226.96859673 30.80600403 223.48822679 30.79884462 220.00746155 30.79173279 C217.51402479 30.797434 215.02059065 30.80439729 212.52716064 30.81253052 C206.45443856 30.82863685 200.38186533 30.83055701 194.30913646 30.82531761 C189.37317866 30.82127607 184.43725143 30.82271927 179.50129509 30.82806587 C178.44749714 30.82918851 178.44749714 30.82918851 177.37241034 30.83033382 C175.94521439 30.8318653 174.51801845 30.83340364 173.09082251 30.83494879 C159.70707342 30.84867652 146.32338279 30.84323422 132.93963503 30.83176357 C120.69634705 30.8218308 108.45321018 30.83477208 96.20994551 30.85869776 C83.63722453 30.88308208 71.06457396 30.8926983 58.49182981 30.88604504 C51.43370795 30.88255133 44.37570233 30.88479479 37.31759834 30.90229607 C30.68146299 30.91854696 24.04556961 30.9138468 17.40942574 30.89499092 C14.97214311 30.89129576 12.53483922 30.89444033 10.09757614 30.90487671 C6.77370931 30.91802424 3.45080849 30.90659342 0.12698364 30.8888855 C-1.32413619 30.90329301 -1.32413619 30.90329301 -2.80457157 30.91799158 C-8.58487729 30.85451046 -11.77424673 30.18504711 -16.20372009 26.38768005 C-20.26002407 21.16508148 -19.97769553 15.73427863 -19.20372009 9.38768005 C-14.99986237 0.5128693 -8.91231369 -0.05524029 0 0 Z " fill="#000000" transform="translate(259.20372009277344,285.61231994628906)"/>
<path d="M0 0 C1.03726103 -0.00538554 2.07452206 -0.01077108 3.14321524 -0.01631981 C6.62396309 -0.03064392 10.10433303 -0.02348452 13.58509827 -0.01637268 C16.07853502 -0.02207389 18.57196916 -0.02903718 21.06539917 -0.03717041 C27.13812126 -0.05327674 33.21069449 -0.05519691 39.28342336 -0.04995751 C44.21938116 -0.04591597 49.15530839 -0.04735916 54.09126472 -0.05270576 C54.79379669 -0.05345419 55.49632866 -0.05420261 56.22014948 -0.05497371 C57.64734543 -0.05650519 59.07454137 -0.05804354 60.5017373 -0.05958868 C73.88548639 -0.07331641 87.26917703 -0.06787411 100.65292478 -0.05640347 C112.89621277 -0.04647069 125.13934963 -0.05941198 137.38261431 -0.08333766 C149.95533528 -0.10772197 162.52798585 -0.11733819 175.10073 -0.11068493 C182.15885186 -0.10719123 189.21685749 -0.10943468 196.27496147 -0.12693596 C202.91109683 -0.14318686 209.5469902 -0.13848669 216.18313408 -0.11963081 C218.6204167 -0.11593565 221.05772059 -0.11908022 223.49498367 -0.1295166 C226.81885051 -0.14266413 230.14175133 -0.13123332 233.46557617 -0.11352539 C234.43298939 -0.1231304 235.40040261 -0.1327354 236.39713138 -0.14263147 C242.1774371 -0.07915036 245.36680654 0.590313 249.79627991 4.38768005 C253.85258389 9.61027863 253.57025534 15.04108148 252.79627991 21.38768005 C250.62546712 25.97050704 248.37264402 28.29017625 243.79627991 30.38768005 C240.39533429 30.8301075 237.01818442 30.79659281 233.59255981 30.77536011 C232.55529879 30.78074565 231.51803776 30.78613118 230.44934458 30.79167992 C226.96859673 30.80600403 223.48822679 30.79884462 220.00746155 30.79173279 C217.51402479 30.797434 215.02059065 30.80439729 212.52716064 30.81253052 C206.45443856 30.82863685 200.38186533 30.83055701 194.30913646 30.82531761 C189.37317866 30.82127607 184.43725143 30.82271927 179.50129509 30.82806587 C178.44749714 30.82918851 178.44749714 30.82918851 177.37241034 30.83033382 C175.94521439 30.8318653 174.51801845 30.83340364 173.09082251 30.83494879 C159.70707342 30.84867652 146.32338279 30.84323422 132.93963503 30.83176357 C120.69634705 30.8218308 108.45321018 30.83477208 96.20994551 30.85869776 C83.63722453 30.88308208 71.06457396 30.8926983 58.49182981 30.88604504 C51.43370795 30.88255133 44.37570233 30.88479479 37.31759834 30.90229607 C30.68146299 30.91854696 24.04556961 30.9138468 17.40942574 30.89499092 C14.97214311 30.89129576 12.53483922 30.89444033 10.09757614 30.90487671 C6.77370931 30.91802424 3.45080849 30.90659342 0.12698364 30.8888855 C-1.32413619 30.90329301 -1.32413619 30.90329301 -2.80457157 30.91799158 C-8.58487729 30.85451046 -11.77424673 30.18504711 -16.20372009 26.38768005 C-20.26002407 21.16508148 -19.97769553 15.73427863 -19.20372009 9.38768005 C-14.99986237 0.5128693 -8.91231369 -0.05524029 0 0 Z " fill="#000000" transform="translate(259.20372009277344,195.61231994628906)"/>
</svg>
