<?xml version="1.0" standalone="no"?>
<!DOCTYPE svg PUBLIC "-//W3C//DTD SVG 20010904//EN"
 "http://www.w3.org/TR/2001/REC-SVG-20010904/DTD/svg10.dtd">
<svg version="1.0" xmlns="http://www.w3.org/2000/svg"
 width="512.000000pt" height="512.000000pt" viewBox="0 0 512.000000 512.000000"
 preserveAspectRatio="xMidYMid meet">

<g transform="translate(0.000000,512.000000) scale(0.100000,-0.100000)"
fill="#000000" stroke="none">
<path d="M2483 4981 c-17 -11 -42 -39 -56 -63 -14 -24 -178 -358 -366 -743
l-342 -700 -802 -119 c-534 -78 -814 -124 -836 -135 -47 -23 -72 -60 -78 -112
-3 -32 1 -52 15 -75 11 -16 246 -250 523 -518 277 -269 539 -524 583 -566 l78
-78 -136 -808 c-149 -887 -146 -857 -85 -908 37 -31 68 -40 117 -33 22 3 330
161 747 383 391 207 715 377 721 377 5 0 335 -169 731 -376 774 -405 761 -399
834 -362 39 21 69 71 69 117 0 29 -257 1532 -274 1600 -3 13 161 180 580 590
321 315 591 587 599 605 8 17 15 43 15 58 0 38 -36 98 -71 119 -20 12 -261 50
-836 131 -444 63 -809 115 -810 115 -1 0 -166 330 -366 733 -223 448 -374 741
-390 756 -37 34 -119 40 -164 12z m757 -1753 c24 -11 254 -48 715 -113 374
-53 688 -99 697 -103 13 -5 -99 -120 -493 -505 -409 -401 -511 -505 -520 -535
-9 -33 5 -126 110 -732 67 -381 120 -697 119 -702 -2 -4 -284 140 -628 319
-579 304 -629 328 -675 327 -46 0 -95 -24 -674 -332 -344 -182 -626 -330 -627
-329 -1 1 49 306 112 677 63 371 114 699 114 729 0 53 -1 54 -75 130 -41 42
-274 270 -518 506 -245 237 -443 432 -441 433 1 2 315 50 697 107 424 63 707
109 725 119 17 9 39 28 50 43 10 16 155 308 323 650 l304 623 325 -647 c303
-603 327 -648 360 -665z"/>
</g>
</svg>
