<svg xmlns="http://www.w3.org/2000/svg" xml:space="preserve" width="1500" height="1500" data-id="lg_iD1G2lNXnJ6XpLnDU5" data-version="1" viewBox="0 0 1500 1500"><path stroke="transparent" d="M0 0h1500v1500H0z"/><g data-padding="20"><g transform="translate(177.955 177.154)scale(.76041)"><path d="M575.163 490.894a400.5 400.5 0 1 0 0 801 400.5 400.5 0 1 0 0-801"/><path d="M535.687 927c27.52-7 55.504 9.636 62.504 37.155s-9.635 55.504-37.154 62.503-55.503-9.634-62.503-37.153c-7-27.52 9.634-55.504 37.153-62.504m136.658 72.59c17.695-4.5 35.686 6.199 40.186 23.894 4.5 17.696-6.198 35.687-23.894 40.186a33.064 33.064 0 1 1-16.292-64.08m-76.662 71.542a25.43 25.43 0 1 1 12.502 49.25c-13.332 2.78-26.486-5.438-29.836-18.637-3.352-13.2 4.29-26.696 17.334-30.613"/><path d="M392.193 1123.802s-.465 13.26 20.084 13.699c0 0 5.12.664 3.63 11.97l-.226 16.49s.665 4.896 9.643 7.875c0 0 1.702 1.73-.865 4.948 0 0-4.708 5.266 3.445 16.678 3.006 4.15 7.9 9.39 4.908 20.11 0 0-3.857 20.72 4.27 25.668 0 0 9.23 10.973 46.416 6.384 12.98-1.596 36.987-7.9 51.298 10.082 0 0 19.71 29.153 22.29 44.528 0 0 88.606-2.62 159.867-18.66 0 0-33.104-104.59 2.194-155.277 0 0 34.94-63.548 36.23-95.627-.027 0 3.91-51.338-34.181-110.43-26.56-29.62-61.606-57.11-148.23-57.722-33.834-.266-85.504 7.754-125.737 50.26-24.326 25.67-42.227 58.122-37.134 111.136 1.104 11.504 17.543 24.804 5.985 47.015 0 0-24.778 43.624-23.9 50.886m247.035-51.963c-2.9-2.993-3.512-7.17-1.33-9.284 2.167-2.114 1.516-7.7.73-9.257-.784-1.57-3.816-2.234-6.755-1.49-2.953.746-6.185-1.94-7.21-5.984-1.023-4.043.533-7.954 3.472-8.712s5.147-5.958 5.267-7.687-2.194-3.804-5.107-4.628c-2.926-.825-4.39-4.788-3.26-8.778 1.13-4.017 4.444-6.637 7.37-5.813 2.926.825 7.448-2.553 8.392-4.003.97-1.45.026-4.415-2.102-6.583s-1.41-6.344 1.583-9.244 7.156-3.511 9.27-1.343c2.115 2.168 7.7 1.516 9.257.745 1.57-.785 2.248-3.83 1.503-6.757-.758-2.952 1.942-6.198 5.985-7.222 4.03-1.024 7.953.532 8.698 3.485.745 2.926 5.972 5.147 7.688 5.253 1.729.12 3.803-2.18 4.628-5.107s4.788-4.375 8.79-3.245 6.625 4.456 5.8 7.368c-.811 2.926 2.554 7.422 3.99 8.38 1.463.97 4.429.026 6.61-2.09 2.155-2.127 6.33-1.41 9.23 1.584 2.926 2.98 3.51 7.155 1.344 9.257-2.168 2.128-1.517 7.714-.745 9.27.798 1.556 3.817 2.234 6.77 1.49 2.926-.76 6.197 1.94 7.22 5.984s-.544 7.967-3.483 8.712-5.147 5.958-5.267 7.687 2.195 3.804 5.107 4.629c2.926.824 4.39 4.774 3.259 8.778-1.13 4.03-4.442 6.65-7.368 5.812s-7.448 2.553-8.393 3.99c-.97 1.463-.026 4.415 2.102 6.597 2.114 2.167 1.41 6.33-1.596 9.243-2.98 2.913-7.142 3.51-9.27 1.33-2.115-2.154-7.674-1.503-9.244-.731s-2.248 3.817-1.503 6.756-1.942 6.198-5.985 7.222c-4.043 1.037-7.953-.532-8.698-3.471-.758-2.953-2.793-5.294-4.55-5.24-1.754.053-6.954 2.167-7.766 5.08-.838 2.913-4.788 4.376-8.804 3.245-4.017-1.13-6.624-4.442-5.8-7.355.825-2.912-2.553-7.448-3.99-8.405-1.462-.958-4.415-.014-6.596 2.1-2.168 2.129-6.33 1.41-9.243-1.57m-172.25-86.502c4.59-1.157 8.02-9.256 8.194-11.943.173-2.673-3.405-5.918-7.94-7.195-4.55-1.277-6.81-7.435-5.054-13.66 1.742-6.25 6.916-10.307 11.438-9.017 4.562 1.264 11.57-3.99 13.06-6.237 1.49-2.248.04-6.85-3.271-10.241-3.3-3.365-2.195-9.842 2.447-14.364s11.145-5.453 14.43-2.075 11.957 2.354 14.39 1.144c2.435-1.197 3.486-5.945 2.329-10.507s3.019-9.616 9.296-11.212c6.278-1.596 12.37.838 13.54 5.413 1.157 4.562 9.27 8.006 11.956 8.18 2.674.159 5.919-3.405 7.196-7.954 1.276-4.522 7.42-6.81 13.659-5.054 6.25 1.769 10.294 6.916 9.017 11.45-1.277 4.55 3.964 11.559 6.225 13.06 2.26 1.49 6.849.028 10.24-3.27s9.843-2.194 14.365 2.46c4.522 4.629 5.453 11.12 2.074 14.418-3.365 3.285-2.354 11.97-1.13 14.39 1.197 2.434 5.932 3.458 10.507 2.315 4.575-1.17 9.616 3.019 11.212 9.31 1.596 6.277-.825 12.369-5.4 13.539s-8.007 9.257-8.18 11.943c-.172 2.687 3.392 5.919 7.927 7.209 4.536 1.263 6.823 7.42 5.054 13.659-1.742 6.25-6.902 10.294-11.438 9.017-4.562-1.276-11.57 3.977-13.06 6.225-1.517 2.248-.027 6.863 3.27 10.24s2.196 9.843-2.446 14.365-11.145 5.466-14.444 2.088c-3.298-3.378-11.943-2.354-14.364-1.144-2.46 1.197-3.498 5.932-2.34 10.507.944 3.684-1.596 7.688-5.932 9.935 1.676-.572 3.338-.372 4.375.692 1.623 1.662 5.906 1.157 7.103.558 1.21-.598 1.729-2.926 1.157-5.187-.572-2.26 1.503-4.761 4.588-5.56 3.126-.784 6.132.427 6.703 2.688s4.589 3.95 5.906 4.043 2.926-1.69 3.564-3.937c.638-2.234 3.684-3.365 6.756-2.487s5.094 3.418 4.456 5.652c-.638 2.26 1.968 5.72 3.072 6.464s3.392 0 5.068-1.622 4.867-1.078 7.115 1.223 2.687 5.493 1.024 7.129c-1.676 1.623-1.17 5.905-.572 7.116.599 1.21 2.926 1.715 5.2 1.13 2.262-.572 4.749 1.503 5.547 4.615.798 3.099-.426 6.118-2.687 6.69s-3.95 4.588-4.03 5.905c-.093 1.33 1.663 2.926 3.924 3.565 2.234.625 3.365 3.657 2.487 6.756-.865 3.086-3.418 5.08-5.666 4.455-2.248-.638-5.706 1.969-6.45 3.073-.745 1.104 0 3.39 1.622 5.054 1.623 1.676 1.077 4.88-1.197 7.115-2.314 2.235-5.52 2.7-7.142 1.038-1.636-1.676-5.905-1.17-7.116-.572s-1.73 2.926-1.143 5.187c.572 2.26-1.503 4.76-4.615 5.546-3.1.798-6.118-.4-6.69-2.66-.56-2.261-2.128-4.083-3.485-4.017-1.33.04-5.347 1.65-5.985 3.897-.625 2.235-3.67 3.365-6.756 2.5-3.086-.877-5.094-3.418-4.456-5.665.639-2.261-1.968-5.72-3.072-6.464-1.117-.732-3.392-.013-5.054 1.636-1.676 1.61-4.868 1.064-7.116-1.224-2.247-2.287-2.7-5.506-1.037-7.13 1.676-1.634 1.184-5.917.585-7.114-.598-1.21-2.94-1.73-5.2-1.144-2.261.572-4.748-1.503-5.546-4.602s.412-6.118 2.673-6.69c2.26-.571 3.95-4.588 4.043-5.905.093-1.316-1.69-2.94-3.937-3.564-2.234-.64-3.351-3.684-2.487-6.77.865-3.085 3.418-5.08 5.666-4.455 2.248.638 5.72-1.955 6.45-3.073.745-1.104.014-3.391-1.622-5.054-1.623-1.662-1.09-4.88 1.224-7.115q.718-.692 1.542-1.144a16 16 0 0 1-2.167.718c-6.265 1.596-12.37-.838-13.527-5.4-1.157-4.588-4.335-8.246-7.05-8.152-2.712.093-10.825 3.35-12.102 7.886-1.276 4.55-7.434 6.823-13.672 5.054-6.25-1.742-10.294-6.916-9.017-11.438 1.29-4.548-3.964-11.57-6.211-13.06-2.261-1.503-6.85-.027-10.241 3.272s-9.842 2.194-14.364-2.448-5.48-11.132-2.102-14.43 2.368-11.957 1.157-14.39c-1.197-2.448-5.932-3.472-10.507-2.315-4.562 1.157-9.616-3.032-11.212-9.31-1.596-6.277.838-12.382 5.4-13.553"/><rect width="1116" height="423.75" x="-383.517" y="280.199" fill="none" rx="0" ry="0" transform="translate(626.66 191.55)"/><path d="M339.553 831.834q-25.13 0-46.69-6.38-21.56-6.37-34.88-19.5-13.31-13.12-13.31-33 0-15.37 9.75-30.75 34.5-54.75 117.75-81.37-12.37-14.25-12.37-32.25 0-14.63 7.87-25.13 15.38-21 46.5-34.87 17.63-7.5 35.81-11.63 18.19-4.12 36.94-4.12 23.25 0 35.44 7.5t12.19 21q0 9.37-5.07 17.06-5.06 7.69-12.56 12.38-7.5 4.68-15.37 4.68-11.63 0-11.63-5.62 0-3.38 4.88-3.38 1.5 0 3.93.57 2.44.56 3.57.56 7.87 0 13.87-8.25t6-16.5q0-12-11.44-17.25-11.43-5.25-25.68-5.25-35.63 0-69.75 22.87-36 23.63-36 53.25 0 10.88 7.5 20.25 13.12-4.12 24.56-5.81t21.94-1.69q36 0 36 13.88 0 6.37-5.25 11.06t-13.32 7.13q-8.06 2.43-16.31 2.43-8.62 0-19.12-2.25t-20.25-6-16.5-8.62q-35.25 10.12-62.44 31.31t-40.31 47.44q-7.13 14.25-7.13 27.75 0 16.5 9.38 27 9.37 10.5 24.93 15.37 15.57 4.88 34.32 4.88 31.12 0 61.87-9.94t52.5-29.44q29.63-26.25 29.63-55.12 0-22.88-22.13-22.88-11.62 0-25.87 5.82-14.25 5.81-26.82 15.56-12.56 9.75-20.81 21.37-8.25 11.63-8.25 23.63t10.5 14.62q3.75 1.5 3.75 3.75 0 3-5.62 3-19.88 0-19.88-22.12 0-14.63 8.63-27.75 8.62-13.13 22.31-23.25 13.69-10.13 29.81-15.94 16.13-5.81 31.13-5.81 17.62 0 27.37 7.69 9.75 7.68 9.75 24.93 0 34.88-38.62 65.63-24.38 19.87-54 28.69-29.63 8.81-63 8.81m91.5-156.38q20.25 0 20.25-11.62 0-5.25-20.25-5.25-9 0-18.57 1.12-9.56 1.13-19.31 3 16.13 12.75 37.88 12.75m100.12 131.26q-12 0-21.75-7.68-9.75-7.69-9.75-20.44 0-26.63 32.63-60.75 33.37-34.5 59.62-34.5 9 0 14.25 4.69 5.25 4.68 5.25 11.43 0 9.38-4.5 17.25-5.25 9.75-15 9.75t-9.75-6q0-4.12 4.88-12.37 5.25-8.63 5.25-9 0-.75-1.13-.75-10.5 1.12-29.25 15.37-8.25 6.38-14.44 12-6.18 5.63-9.93 10.88l-14.63 21.37q-2.25 3.38-4.69 11.63-2.43 8.25-2.43 12.37 0 7.5 5.06 12.38 5.06 4.87 12.94 4.87 18.75 0 49.5-24.37 24.75-19.5 39.75-39.38 1.87-2.25 4.5-2.25 2.62 0 2.62 1.5 0 1.13-1.87 3.75-20.63 27.38-48.38 47.25-29.62 21-48.75 21"/><path d="M598.673 803.714q-10.87 0-10.87-6.37 0-3.75 4.5-12 17.25-30.75 30.93-54.56 13.69-23.82 24.19-40.32 44.63-71.62 63-77.62.75 0 1.13-.19.37-.19.75-.19 4.87 0 6.37 7.88-1.12 7.87-39 57-19.87 25.12-30.94 41.44-11.06 16.31-13.68 23.81 12.37-9 26.62-19.13 14.25-10.12 27.75-19.31t24.38-15q10.87-5.81 16.87-6.56.75 0 1.88-.19 1.12-.19 1.5-.19 10.5 0 10.5 9.75 0 2.63-6.75 11.63t-20.63 27.75q-24.75 33-24.75 49.5 0 8.62 6.38 8.62 6.75-.37 15.56-6 8.81-5.62 17.81-13.87t16.31-16.31q7.32-8.07 11.07-12.57 3.37-3.37 5.25-3.37 1.5 0 1.5 1.5 0 3-3 7.12-4.5 5.63-13.32 14.63-8.81 9-19.12 18.19-10.31 9.18-19.5 15.37t-13.69 6.19q-22.12 0-22.12-25.88 0-14.62 13.5-38.25 5.25-9 10.87-18 5.63-9 11.25-18-48 24-87 70.88-4.87 6.75-10.12 14.44-5.25 7.68-9.38 12.93-4.12 5.25-6 5.25"/><path d="M771.923 802.594h-6q-9.37 0-14.62-8.81-5.25-8.82-5.25-17.07 0-22.5 32.62-63 33-40.87 53.25-40.87 19.13 0 19.13 20.25 0 3-.57 6.37-.56 3.38-1.31 7.13.75 1.12 3.75 1.12 10.13 0 24-7.12-.37 6.37-29.62 18.37 4.12 12.38-24.75 47.25-29.63 36.38-50.63 36.38m.75-11.25q16.13 0 41.25-29.63 24.38-28.87 24.38-41.62-6-3.38-15-17.25-12.75 0-36.75 30.75-23.63 30-22.88 46.12.38 11.63 9 11.63M940.95 261.092c67.43-1.69 130.423 21.993 177.448 66.792a247.5 247.5 0 0 1 76.36 171.783l-16.588.37a230.18 230.18 0 0 0-71.226-160.16c-43.767-41.76-102.57-63.838-165.555-62.2Zm1.386 85.828c40.832-3.142 82.683 11.858 114.879 41.204a157.4 157.4 0 0 1 52.188 114.454l-16.59.3a140.58 140.58 0 0 0-46.727-102.458c-28.9-26.274-66.216-39.75-102.508-36.977Zm203.5-136.937 16.588-.37a230.18 230.18 0 0 0 71.227 160.16c43.8 41.725 102.604 63.803 165.588 62.164l.406 16.622c-67.431 1.689-130.424-21.994-177.448-66.792a247.5 247.5 0 0 1-76.36-171.784m85.424-2.913 16.52-.296a141.07 141.07 0 0 0 46.763 102.49c28.865 26.24 66.214 39.68 102.506 36.907l1.278 16.557c-40.832 3.142-82.72-11.891-114.915-41.237a156.92 156.92 0 0 1-52.152-114.42m105.257 8.405a31.136 31.136 0 1 1 47.164 40.657 31.136 31.136 0 0 1-47.164-40.657m33.342 31.092a14.528 14.528 0 1 0-21.25-19.817 14.528 14.528 0 0 0 21.25 19.817M956.907 453.3a31.136 31.136 0 1 1 45.472 42.472 31.136 31.136 0 1 1-45.508-42.505m33.306 31.057a14.503 14.503 0 1 0-21.215-19.783 14.528 14.528 0 0 0 21.25 19.817"/></g><path fill="transparent" stroke="transparent" stroke-width=".773" d="M303.034 325.605H1250v848.79H303.034z"/></g></svg>